<svg width="433" height="393" viewBox="0 0 433 393" fill="none" xmlns="http://www.w3.org/2000/svg">
<g clip-path="url(#clip0_8_1157)">
<path d="M238.969 138.38C212.657 154.822 204.655 189.481 221.097 215.794C237.539 242.106 272.198 250.108 298.511 233.666C324.823 217.224 332.825 182.565 316.383 156.252C299.941 129.939 265.282 121.938 238.969 138.38Z" fill="#D7F484"/>
<path d="M275.807 -31.4845C259.362 -21.2083 254.361 0.453803 264.637 16.8992C274.913 33.3445 296.575 38.3456 313.021 28.0694C329.466 17.7932 334.467 -3.8689 324.191 -20.3143C313.915 -36.7596 292.252 -41.7607 275.807 -31.4845Z" fill="#F9826C"/>
<circle cx="44.0979" cy="49.4998" r="182" transform="rotate(148 44.0979 49.4998)" fill="#F9826C"/>
</g>
<defs>
<clipPath id="clip0_8_1157">
<rect width="458" height="500" fill="white" transform="translate(432.366 150.024) rotate(148)"/>
</clipPath>
</defs>
</svg>
