<svg width="436" height="287" viewBox="0 0 436 287" fill="none" xmlns="http://www.w3.org/2000/svg">
<g opacity="0.35" filter="url(#filter0_d_5_255)">
<path d="M35.0945 48.7192H39.1092V59.74H37.5978V50.0889H35.0945V48.7192ZM56.3265 53.6313C55.6652 52.9911 54.8728 52.6709 53.9491 52.6709C53.4033 52.6709 52.9153 52.7917 52.4849 53.0331C52.0651 53.2745 51.7345 53.6156 51.4931 54.0564C51.2517 54.4973 51.131 55.0063 51.131 55.5836C51.131 56.1609 51.2464 56.6699 51.4773 57.1108C51.7187 57.5516 52.0441 57.898 52.4535 58.1499C52.8733 58.3913 53.3509 58.512 53.8862 58.512C54.4215 58.512 54.9043 58.4228 55.3346 58.2443C55.7649 58.0659 56.1218 57.8087 56.4052 57.4729L57.2396 58.323C56.8618 58.7954 56.379 59.1575 55.7912 59.4094C55.2139 59.6613 54.5579 59.7872 53.8232 59.7872C53.015 59.7872 52.296 59.6088 51.6663 59.2519C51.0365 58.8951 50.5432 58.4018 50.1863 57.772C49.8399 57.1317 49.6668 56.4023 49.6668 55.5836C49.6668 54.7649 49.8399 54.0354 50.1863 53.3952C50.5432 52.7549 51.0365 52.2564 51.6663 51.8995C52.296 51.5426 53.015 51.3642 53.8232 51.3642C54.5264 51.3642 55.1562 51.4744 55.7125 51.6948C56.2792 51.9047 56.7516 52.2144 57.1294 52.6237L56.3265 53.6313ZM59.4048 48.058H60.869V59.74H59.4048V48.058ZM68.9009 59.74V58.5749C68.2816 59.3936 67.3107 59.803 65.9883 59.803C65.411 59.803 64.9019 59.6928 64.4611 59.4724C64.0307 59.2519 63.6949 58.9476 63.4535 58.5592C63.2226 58.1709 63.1071 57.7353 63.1071 57.2525C63.1071 56.5072 63.38 55.9195 63.9258 55.4891C64.4821 55.0483 65.2535 54.8226 66.2402 54.8121H68.8851V54.4185C68.8851 53.8308 68.7015 53.3794 68.3341 53.0645C67.9772 52.7392 67.4524 52.5765 66.7597 52.5765C65.92 52.5765 65.0646 52.8756 64.1934 53.4739L63.5794 52.4663C64.1777 52.0779 64.7287 51.7998 65.2325 51.6318C65.7468 51.4534 66.3556 51.3642 67.0588 51.3642C68.0979 51.3642 68.9009 51.6213 69.4677 52.1357C70.0345 52.6395 70.3231 53.3479 70.3336 54.2611L70.3493 59.74H68.9009ZM66.2874 58.5907C66.9696 58.5907 67.5469 58.428 68.0192 58.1026C68.502 57.7668 68.7907 57.3259 68.8851 56.7801V55.9457H66.4448C65.7836 55.9457 65.2903 56.0454 64.9649 56.2448C64.65 56.4443 64.4926 56.7591 64.4926 57.1895C64.4926 57.6198 64.6553 57.9609 64.9806 58.2128C65.306 58.4647 65.7416 58.5907 66.2874 58.5907ZM77.5137 53.2535C77.1674 53.0436 76.7843 52.8756 76.3644 52.7497C75.9551 52.6237 75.5615 52.5607 75.1836 52.5607C74.7428 52.5607 74.3859 52.6447 74.113 52.8126C73.8506 52.9701 73.7194 53.2167 73.7194 53.5526C73.7194 53.8885 73.8664 54.1456 74.1603 54.3241C74.4646 54.492 74.9212 54.6652 75.53 54.8436C76.1073 55.0116 76.5796 55.1795 76.9469 55.3474C77.3143 55.5154 77.6239 55.762 77.8758 56.0874C78.1382 56.4128 78.2694 56.8431 78.2694 57.3784C78.2694 58.1656 77.9703 58.7639 77.372 59.1732C76.7843 59.5826 76.0495 59.7872 75.1679 59.7872C74.5486 59.7872 73.9451 59.6875 73.3573 59.4881C72.78 59.2887 72.292 59.0053 71.8931 58.6379L72.4442 57.5673C72.7905 57.8822 73.2156 58.1341 73.7194 58.323C74.2337 58.512 74.7323 58.6064 75.2151 58.6064C75.6979 58.6064 76.0863 58.5172 76.3802 58.3388C76.674 58.1604 76.821 57.8875 76.821 57.5201C76.821 57.1422 76.6635 56.8589 76.3487 56.6699C76.0443 56.481 75.5772 56.2921 74.9475 56.1031C74.3912 55.9457 73.9346 55.7883 73.5777 55.6308C73.2314 55.4629 72.9322 55.2215 72.6803 54.9066C72.4389 54.5917 72.3182 54.1824 72.3182 53.6786C72.3182 52.9019 72.6016 52.3193 73.1684 51.931C73.7352 51.5426 74.4436 51.3485 75.2938 51.3485C75.7976 51.3485 76.2909 51.4219 76.7738 51.5689C77.2671 51.7053 77.6922 51.8942 78.049 52.1357L77.5137 53.2535ZM84.7553 53.2535C84.409 53.0436 84.0259 52.8756 83.606 52.7497C83.1967 52.6237 82.8031 52.5607 82.4252 52.5607C81.9844 52.5607 81.6275 52.6447 81.3546 52.8126C81.0922 52.9701 80.961 53.2167 80.961 53.5526C80.961 53.8885 81.108 54.1456 81.4019 54.3241C81.7063 54.492 82.1628 54.6652 82.7716 54.8436C83.3489 55.0116 83.8212 55.1795 84.1886 55.3474C84.5559 55.5154 84.8656 55.762 85.1175 56.0874C85.3799 56.4128 85.5111 56.8431 85.5111 57.3784C85.5111 58.1656 85.2119 58.7639 84.6136 59.1732C84.0259 59.5826 83.2912 59.7872 82.4095 59.7872C81.7902 59.7872 81.1867 59.6875 80.5989 59.4881C80.0216 59.2887 79.5336 59.0053 79.1347 58.6379L79.6858 57.5673C80.0321 57.8822 80.4572 58.1341 80.961 58.323C81.4753 58.512 81.9739 58.6064 82.4567 58.6064C82.9395 58.6064 83.3279 58.5172 83.6218 58.3388C83.9157 58.1604 84.0626 57.8875 84.0626 57.5201C84.0626 57.1422 83.9052 56.8589 83.5903 56.6699C83.2859 56.481 82.8188 56.2921 82.1891 56.1031C81.6328 55.9457 81.1762 55.7883 80.8193 55.6308C80.473 55.4629 80.1738 55.2215 79.9219 54.9066C79.6805 54.5917 79.5598 54.1824 79.5598 53.6786C79.5598 52.9019 79.8432 52.3193 80.41 51.931C80.9768 51.5426 81.6853 51.3485 82.5354 51.3485C83.0392 51.3485 83.5326 51.4219 84.0154 51.5689C84.5087 51.7053 84.9338 51.8942 85.2906 52.1357L84.7553 53.2535ZM96.0545 48.7035C97.461 48.7035 98.5525 49.0446 99.3292 49.7268C100.106 50.3986 100.494 51.3485 100.494 52.5765C100.494 53.878 100.106 54.8909 99.3292 55.6151C98.5525 56.3288 97.461 56.6857 96.0545 56.6857H94.0865V59.74H91.2053V48.7035H96.0545ZM95.9128 54.387C96.5006 54.387 96.9519 54.2401 97.2668 53.9462C97.5922 53.6523 97.7548 53.2272 97.7548 52.6709C97.7548 52.1357 97.5922 51.7263 97.2668 51.4429C96.9519 51.149 96.5006 51.0021 95.9128 51.0021H94.0865V54.387H95.9128ZM105.653 51.128C107.039 51.128 108.104 51.5374 108.849 52.3561C109.595 53.1748 109.967 54.2978 109.967 55.7253C109.967 55.9457 109.962 56.1136 109.952 56.2291H104.032C104.168 56.7119 104.404 57.0845 104.74 57.3469C105.076 57.5988 105.485 57.7248 105.968 57.7248C106.336 57.7248 106.687 57.6513 107.023 57.5044C107.37 57.3574 107.684 57.1422 107.968 56.8589L109.432 58.323C108.991 58.8164 108.456 59.1942 107.826 59.4566C107.207 59.7085 106.504 59.8345 105.716 59.8345C104.803 59.8345 104.006 59.656 103.323 59.2992C102.641 58.9423 102.116 58.4385 101.749 57.7877C101.392 57.137 101.214 56.3813 101.214 55.5206C101.214 54.6494 101.397 53.8832 101.765 53.222C102.132 52.5502 102.652 52.0359 103.323 51.6791C103.995 51.3117 104.772 51.128 105.653 51.128ZM107.244 54.7334C107.244 54.2401 107.097 53.8465 106.803 53.5526C106.519 53.2482 106.141 53.096 105.669 53.096C105.228 53.096 104.856 53.243 104.551 53.5369C104.257 53.8308 104.063 54.2296 103.969 54.7334H107.244ZM114.195 52.6395C114.489 52.1461 114.867 51.7683 115.329 51.5059C115.801 51.2435 116.336 51.1123 116.935 51.1123V53.6786C116.84 53.6681 116.698 53.6628 116.51 53.6628C115.848 53.6628 115.313 53.8203 114.904 54.1351C114.494 54.4395 114.258 54.8594 114.195 55.3947V59.74H111.393V51.2225H114.195V52.6395ZM123.841 53.9147C122.739 53.3374 121.837 53.0488 121.133 53.0488C120.892 53.0488 120.698 53.096 120.551 53.1905C120.404 53.2745 120.33 53.4057 120.33 53.5841C120.33 53.773 120.446 53.9252 120.677 54.0407C120.908 54.1561 121.275 54.2821 121.779 54.4185C122.388 54.597 122.891 54.7754 123.29 54.9538C123.7 55.1218 124.051 55.3842 124.345 55.741C124.639 56.0874 124.786 56.544 124.786 57.1108C124.786 57.9714 124.45 58.6484 123.778 59.1417C123.117 59.6245 122.251 59.866 121.181 59.866C120.456 59.866 119.764 59.7662 119.102 59.5668C118.441 59.3569 117.853 59.0525 117.339 58.6537L118.221 56.8431C118.704 57.179 119.207 57.4414 119.732 57.6303C120.267 57.8087 120.771 57.898 121.244 57.898C121.516 57.898 121.732 57.856 121.889 57.772C122.057 57.6775 122.141 57.5463 122.141 57.3784C122.141 57.1685 122.02 57.0058 121.779 56.8903C121.548 56.7749 121.181 56.6489 120.677 56.5125C120.078 56.3341 119.585 56.1609 119.197 55.9929C118.808 55.8145 118.467 55.5521 118.173 55.2057C117.89 54.8594 117.748 54.408 117.748 53.8517C117.748 52.9911 118.074 52.3193 118.725 51.8365C119.375 51.3432 120.215 51.0965 121.244 51.0965C121.863 51.0965 122.472 51.1805 123.07 51.3485C123.679 51.5164 124.251 51.763 124.786 52.0884L123.841 53.9147ZM130.243 51.128C131.166 51.128 131.98 51.3117 132.683 51.6791C133.386 52.0359 133.932 52.545 134.321 53.2062C134.709 53.857 134.903 54.6127 134.903 55.4734C134.903 56.3445 134.709 57.1108 134.321 57.772C133.932 58.4228 133.386 58.9318 132.683 59.2992C131.98 59.656 131.166 59.8345 130.243 59.8345C129.319 59.8345 128.506 59.656 127.803 59.2992C127.099 58.9318 126.553 58.4228 126.165 57.772C125.787 57.1108 125.598 56.3445 125.598 55.4734C125.598 54.6127 125.787 53.857 126.165 53.2062C126.553 52.545 127.099 52.0359 127.803 51.6791C128.506 51.3117 129.319 51.128 130.243 51.128ZM130.243 53.3952C129.697 53.3952 129.256 53.5893 128.92 53.9777C128.584 54.3661 128.417 54.8751 128.417 55.5049C128.417 56.1451 128.584 56.6594 128.92 57.0478C129.256 57.4361 129.697 57.6303 130.243 57.6303C130.799 57.6303 131.245 57.4361 131.581 57.0478C131.917 56.6594 132.085 56.1451 132.085 55.5049C132.085 54.8751 131.912 54.3661 131.565 53.9777C131.229 53.5893 130.789 53.3952 130.243 53.3952ZM141.952 51.1123C142.886 51.1123 143.631 51.4062 144.187 51.994C144.754 52.5817 145.037 53.3742 145.037 54.3713V59.74H142.251V55.1742C142.251 54.6914 142.12 54.3136 141.857 54.0407C141.595 53.7573 141.243 53.6156 140.802 53.6156C140.34 53.6261 139.957 53.7783 139.653 54.0722C139.359 54.3661 139.186 54.7544 139.133 55.2372V59.74H136.331V51.2225H139.133V52.608C139.438 52.1147 139.826 51.7421 140.298 51.4901C140.781 51.2382 141.332 51.1123 141.952 51.1123ZM153.312 53.285C153.312 53.6628 153.249 53.9357 153.123 54.1037C152.997 54.2716 152.771 54.45 152.446 54.6389L152.084 54.8751C152.189 54.9591 152.309 55.0378 152.446 55.1113C152.677 55.2582 152.845 55.3789 152.949 55.4734C153.065 55.5678 153.154 55.6938 153.217 55.8512C153.28 56.0087 153.312 56.2238 153.312 56.4967V59.3779C153.312 59.7872 153.427 60.0811 153.658 60.2596C153.899 60.438 154.298 60.5272 154.855 60.5272V61.7237H154.303C153.464 61.7237 152.86 61.5768 152.493 61.2829C152.136 60.989 151.958 60.4957 151.958 59.803V56.4023C151.958 56.0769 151.9 55.846 151.784 55.7095C151.669 55.5626 151.491 55.4891 151.249 55.4891H150.793V54.2768H151.249C151.491 54.2768 151.669 54.2086 151.784 54.0722C151.9 53.9252 151.958 53.6891 151.958 53.3637V49.963C151.958 49.2807 152.136 48.7927 152.493 48.4988C152.86 48.1944 153.464 48.0422 154.303 48.0422H154.855V49.2388C154.298 49.2388 153.899 49.328 153.658 49.5064C153.427 49.6848 153.312 49.9787 153.312 50.3881V53.285Z" fill="#F9826C"/>
<path d="M43.5647 92.2103V93.58H35.5983V92.4149L39.8649 87.9909C40.3267 87.5291 40.6941 87.0725 40.967 86.6212C41.2399 86.1593 41.3763 85.7605 41.3763 85.4246C41.3763 84.9313 41.1821 84.5429 40.7938 84.2596C40.4159 83.9762 39.8911 83.8345 39.2194 83.8345C38.7051 83.8345 38.1698 83.9552 37.6135 84.1966C37.0572 84.4275 36.5534 84.7529 36.1021 85.1727L35.4566 84.0234C36.0548 83.5406 36.6899 83.168 37.3616 82.9056C38.0438 82.6327 38.7261 82.4962 39.4083 82.4962C40.4789 82.4962 41.3343 82.7429 41.9746 83.2362C42.6253 83.7295 42.9507 84.3908 42.9507 85.2199C42.9507 86.1961 42.2685 87.3926 40.904 88.8096L37.582 92.2103H43.5647ZM76.0987 87.4713C75.4375 86.8311 74.645 86.5109 73.7214 86.5109C73.1756 86.5109 72.6875 86.6316 72.2572 86.8731C71.8374 87.1145 71.5067 87.4556 71.2653 87.8964C71.0239 88.3372 70.9032 88.8463 70.9032 89.4236C70.9032 90.0009 71.0187 90.5099 71.2496 90.9508C71.491 91.3916 71.8164 91.738 72.2257 91.9899C72.6455 92.2313 73.1231 92.352 73.6584 92.352C74.1937 92.352 74.6765 92.2628 75.1069 92.0843C75.5372 91.9059 75.8941 91.6487 76.1774 91.3129L77.0119 92.163C76.634 92.6354 76.1512 92.9975 75.5634 93.2494C74.9862 93.5013 74.3302 93.6272 73.5954 93.6272C72.7872 93.6272 72.0683 93.4488 71.4385 93.0919C70.8087 92.7351 70.3154 92.2418 69.9586 91.612C69.6122 90.9717 69.439 90.2423 69.439 89.4236C69.439 88.6049 69.6122 87.8754 69.9586 87.2352C70.3154 86.5949 70.8087 86.0964 71.4385 85.7395C72.0683 85.3826 72.7872 85.2042 73.5954 85.2042C74.2987 85.2042 74.9284 85.3144 75.4847 85.5348C76.0515 85.7447 76.5238 86.0544 76.9017 86.4637L76.0987 87.4713ZM82.193 85.2042C83.0222 85.2042 83.7569 85.3826 84.3972 85.7395C85.0479 86.0964 85.5517 86.5949 85.9086 87.2352C86.276 87.8649 86.4596 88.5892 86.4596 89.4078C86.4596 90.2265 86.276 90.956 85.9086 91.5963C85.5517 92.2365 85.0479 92.7351 84.3972 93.0919C83.7569 93.4488 83.0222 93.6272 82.193 93.6272C81.3533 93.6272 80.6081 93.4488 79.9574 93.0919C79.3171 92.7351 78.8133 92.2418 78.4459 91.612C78.0891 90.9717 77.9106 90.237 77.9106 89.4078C77.9106 88.5892 78.0891 87.8649 78.4459 87.2352C78.8133 86.5949 79.3171 86.0964 79.9574 85.7395C80.6081 85.3826 81.3533 85.2042 82.193 85.2042ZM82.193 86.4795C81.6472 86.4795 81.1592 86.6054 80.7288 86.8573C80.309 87.1092 79.9784 87.4608 79.7369 87.9122C79.506 88.353 79.3906 88.8568 79.3906 89.4236C79.3906 90.0009 79.506 90.5152 79.7369 90.9665C79.9784 91.4178 80.309 91.7694 80.7288 92.0213C81.1592 92.2628 81.6472 92.3835 82.193 92.3835C82.7283 92.3835 83.2059 92.2628 83.6257 92.0213C84.0561 91.7694 84.3867 91.4178 84.6176 90.9665C84.859 90.5152 84.9797 90.0009 84.9797 89.4236C84.9797 88.8568 84.859 88.353 84.6176 87.9122C84.3867 87.4608 84.0561 87.1092 83.6257 86.8573C83.2059 86.6054 82.7283 86.4795 82.193 86.4795ZM93.1366 85.2042C94.1127 85.2042 94.8789 85.4928 95.4352 86.0701C95.9915 86.6369 96.2696 87.4241 96.2696 88.4317V93.58H94.8054V88.8253C94.8054 88.1221 94.606 87.5763 94.2072 87.1879C93.8188 86.7891 93.2783 86.5897 92.5855 86.5897C91.8403 86.6002 91.2315 86.8416 90.7592 87.3139C90.2974 87.7757 90.035 88.3792 89.972 89.1244V93.58H88.5078V85.2514H89.972V87.0148C90.5283 85.8287 91.5832 85.2252 93.1366 85.2042ZM103.436 87.0935C103.09 86.8836 102.706 86.7156 102.287 86.5897C101.877 86.4637 101.484 86.4007 101.106 86.4007C100.665 86.4007 100.308 86.4847 100.035 86.6526C99.7729 86.8101 99.6417 87.0567 99.6417 87.3926C99.6417 87.7285 99.7886 87.9856 100.082 88.1641C100.387 88.332 100.843 88.5052 101.452 88.6836C102.03 88.8516 102.502 89.0195 102.869 89.1874C103.237 89.3554 103.546 89.602 103.798 89.9274C104.06 90.2528 104.192 90.6831 104.192 91.2184C104.192 92.0056 103.893 92.6039 103.294 93.0132C102.706 93.4226 101.972 93.6272 101.09 93.6272C100.471 93.6272 99.8673 93.5275 99.2796 93.3281C98.7023 93.1287 98.2142 92.8453 97.8154 92.4779L98.3664 91.4073C98.7128 91.7222 99.1379 91.9741 99.6417 92.163C100.156 92.352 100.655 92.4464 101.137 92.4464C101.62 92.4464 102.009 92.3572 102.302 92.1788C102.596 92.0004 102.743 91.7275 102.743 91.3601C102.743 90.9822 102.586 90.6988 102.271 90.5099C101.967 90.321 101.499 90.1321 100.87 89.9431C100.313 89.7857 99.8568 89.6283 99.5 89.4708C99.1536 89.3029 98.8545 89.0615 98.6026 88.7466C98.3612 88.4317 98.2405 88.0224 98.2405 87.5186C98.2405 86.7419 98.5238 86.1593 99.0906 85.771C99.6574 85.3826 100.366 85.1884 101.216 85.1884C101.72 85.1884 102.213 85.2619 102.696 85.4089C103.189 85.5453 103.614 85.7342 103.971 85.9756L103.436 87.0935ZM110.599 93.029C109.959 93.4383 109.308 93.643 108.647 93.643C107.985 93.643 107.45 93.4488 107.041 93.0604C106.631 92.6616 106.427 92.0633 106.427 91.2656V86.6526H105.246V85.5348H106.427V83.2992H107.907V85.5348H110.457V86.6526H107.907V90.998C107.907 91.4598 107.991 91.7904 108.159 91.9899C108.326 92.1893 108.578 92.289 108.914 92.289C109.313 92.289 109.743 92.1578 110.205 91.8954L110.599 93.029ZM113.849 87.0462C114.122 86.448 114.511 85.9966 115.014 85.6923C115.518 85.3774 116.117 85.2147 116.809 85.2042V86.6212C115.959 86.5897 115.272 86.8101 114.747 87.2824C114.222 87.7547 113.923 88.3897 113.849 89.1874V93.58H112.385V85.2514H113.849V87.0462ZM125.765 85.2514V93.58H124.285V91.8167C123.739 93.0027 122.711 93.6062 121.199 93.6272C120.234 93.6272 119.478 93.3438 118.932 92.7771C118.386 92.1998 118.113 91.4073 118.113 90.3997V85.2514H119.593V90.0061C119.593 90.7093 119.782 91.2604 120.16 91.6592C120.549 92.0476 121.079 92.2418 121.75 92.2418C122.527 92.2313 123.141 91.9584 123.592 91.4231C124.054 90.8773 124.285 90.1845 124.285 89.3449V85.2514H125.765ZM134.462 87.4713C133.801 86.8311 133.009 86.5109 132.085 86.5109C131.539 86.5109 131.051 86.6316 130.621 86.8731C130.201 87.1145 129.87 87.4556 129.629 87.8964C129.387 88.3372 129.267 88.8463 129.267 89.4236C129.267 90.0009 129.382 90.5099 129.613 90.9508C129.854 91.3916 130.18 91.738 130.589 91.9899C131.009 92.2313 131.487 92.352 132.022 92.352C132.557 92.352 133.04 92.2628 133.47 92.0843C133.901 91.9059 134.258 91.6487 134.541 91.3129L135.375 92.163C134.998 92.6354 134.515 92.9975 133.927 93.2494C133.35 93.5013 132.694 93.6272 131.959 93.6272C131.151 93.6272 130.432 93.4488 129.802 93.0919C129.172 92.7351 128.679 92.2418 128.322 91.612C127.976 90.9717 127.803 90.2423 127.803 89.4236C127.803 88.6049 127.976 87.8754 128.322 87.2352C128.679 86.5949 129.172 86.0964 129.802 85.7395C130.432 85.3826 131.151 85.2042 131.959 85.2042C132.662 85.2042 133.292 85.3144 133.848 85.5348C134.415 85.7447 134.887 86.0544 135.265 86.4637L134.462 87.4713ZM141.933 93.029C141.293 93.4383 140.642 93.643 139.981 93.643C139.32 93.643 138.784 93.4488 138.375 93.0604C137.966 92.6616 137.761 92.0633 137.761 91.2656V86.6526H136.58V85.5348H137.761V83.2992H139.241V85.5348H141.791V86.6526H139.241V90.998C139.241 91.4598 139.325 91.7904 139.493 91.9899C139.661 92.1893 139.913 92.289 140.249 92.289C140.647 92.289 141.078 92.1578 141.54 91.8954L141.933 93.029ZM147.076 85.2042C147.905 85.2042 148.639 85.3826 149.28 85.7395C149.93 86.0964 150.434 86.5949 150.791 87.2352C151.158 87.8649 151.342 88.5892 151.342 89.4078C151.342 90.2265 151.158 90.956 150.791 91.5963C150.434 92.2365 149.93 92.7351 149.28 93.0919C148.639 93.4488 147.905 93.6272 147.076 93.6272C146.236 93.6272 145.491 93.4488 144.84 93.0919C144.2 92.7351 143.696 92.2418 143.328 91.612C142.972 90.9717 142.793 90.237 142.793 89.4078C142.793 88.5892 142.972 87.8649 143.328 87.2352C143.696 86.5949 144.2 86.0964 144.84 85.7395C145.491 85.3826 146.236 85.2042 147.076 85.2042ZM147.076 86.4795C146.53 86.4795 146.042 86.6054 145.611 86.8573C145.191 87.1092 144.861 87.4608 144.619 87.9122C144.389 88.353 144.273 88.8568 144.273 89.4236C144.273 90.0009 144.389 90.5152 144.619 90.9665C144.861 91.4178 145.191 91.7694 145.611 92.0213C146.042 92.2628 146.53 92.3835 147.076 92.3835C147.611 92.3835 148.088 92.2628 148.508 92.0213C148.939 91.7694 149.269 91.4178 149.5 90.9665C149.741 90.5152 149.862 90.0009 149.862 89.4236C149.862 88.8568 149.741 88.353 149.5 87.9122C149.269 87.4608 148.939 87.1092 148.508 86.8573C148.088 86.6054 147.611 86.4795 147.076 86.4795ZM154.855 87.0462C155.127 86.448 155.516 85.9966 156.02 85.6923C156.523 85.3774 157.122 85.2147 157.814 85.2042V86.6212C156.964 86.5897 156.277 86.8101 155.752 87.2824C155.227 87.7547 154.928 88.3897 154.855 89.1874V93.58H153.39V85.2514H154.855V87.0462ZM162.425 81.898C161.837 82.8006 161.38 83.8397 161.055 85.0153C160.74 86.1908 160.583 87.4241 160.583 88.7151C160.583 90.0061 160.74 91.2394 161.055 92.4149C161.38 93.5905 161.837 94.6296 162.425 95.5323H161.071C160.462 94.6401 159.995 93.6115 159.67 92.4464C159.344 91.2709 159.182 90.0271 159.182 88.7151C159.182 87.4031 159.344 86.1646 159.67 84.9995C159.995 83.824 160.462 82.7901 161.071 81.898H162.425ZM164.435 81.898C165.044 82.7901 165.511 83.824 165.837 84.9995C166.162 86.1646 166.325 87.4031 166.325 88.7151C166.325 90.0271 166.162 91.2709 165.837 92.4464C165.511 93.6115 165.044 94.6401 164.435 95.5323H163.082C163.669 94.6296 164.121 93.5905 164.435 92.4149C164.761 91.2394 164.924 90.0061 164.924 88.7151C164.924 87.4241 164.761 86.1908 164.435 85.0153C164.121 83.8397 163.669 82.8006 163.082 81.898H164.435ZM174.975 87.125C174.975 87.5028 174.912 87.7757 174.786 87.9436C174.66 88.1116 174.434 88.29 174.109 88.4789L173.747 88.7151C173.852 88.7991 173.973 88.8778 174.109 88.9513C174.34 89.0982 174.508 89.2189 174.613 89.3134C174.728 89.4078 174.818 89.5338 174.881 89.6912C174.943 89.8487 174.975 90.0638 174.975 90.3367V93.2179C174.975 93.6272 175.09 93.9211 175.321 94.0996C175.563 94.278 175.962 94.3672 176.518 94.3672V95.5637H175.967C175.127 95.5637 174.524 95.4168 174.156 95.1229C173.799 94.829 173.621 94.3357 173.621 93.643V90.2423C173.621 89.9169 173.563 89.686 173.448 89.5495C173.332 89.4026 173.154 89.3291 172.913 89.3291H172.456V88.1168H172.913C173.154 88.1168 173.332 88.0486 173.448 87.9122C173.563 87.7652 173.621 87.5291 173.621 87.2037V83.803C173.621 83.1207 173.799 82.6327 174.156 82.3388C174.524 82.0344 175.127 81.8822 175.967 81.8822H176.518V83.0788C175.962 83.0788 175.563 83.168 175.321 83.3464C175.09 83.5248 174.975 83.8187 174.975 84.2281V87.125Z" fill="#F9826C"/>
<path d="M39.8019 121.075C40.904 121.138 41.7804 121.427 42.4312 121.941C43.0819 122.455 43.4073 123.148 43.4073 124.019C43.4073 124.702 43.2289 125.305 42.872 125.83C42.5256 126.355 42.0271 126.764 41.3763 127.058C40.7361 127.352 39.9856 127.499 39.1249 127.499C38.4322 127.499 37.7342 127.394 37.031 127.184C36.3382 126.974 35.74 126.696 35.2362 126.349L35.8817 125.121C36.3225 125.468 36.8158 125.735 37.3616 125.924C37.9074 126.113 38.4637 126.208 39.0305 126.208C39.9331 126.208 40.6416 126.014 41.1559 125.625C41.6702 125.237 41.9274 124.717 41.9274 124.067C41.9274 123.416 41.6702 122.922 41.1559 122.587C40.6416 122.24 39.9174 122.067 38.9832 122.067H37.4718V121.107L40.8568 117.769H35.7715L35.7557 116.399H42.8405V117.36L39.1407 121.028L39.8019 121.075ZM83.0776 126.869C82.4374 127.278 81.7866 127.483 81.1254 127.483C80.4641 127.483 79.9288 127.289 79.5195 126.9C79.1101 126.502 78.9055 125.903 78.9055 125.106V120.493H77.7247V119.375H78.9055V117.139H80.3854V119.375H82.9359V120.493H80.3854V124.838C80.3854 125.3 80.4694 125.63 80.6373 125.83C80.8052 126.029 81.0571 126.129 81.393 126.129C81.7919 126.129 82.2222 125.998 82.684 125.735L83.0776 126.869ZM89.5872 119.044C90.5633 119.044 91.3295 119.333 91.8858 119.91C92.4421 120.477 92.7202 121.264 92.7202 122.272V127.42H91.256V122.665C91.256 121.962 91.0566 121.416 90.6577 121.028C90.2694 120.629 89.7289 120.43 89.0361 120.43C88.2279 120.44 87.5877 120.713 87.1153 121.248C86.643 121.784 86.4069 122.476 86.4069 123.327V127.42H84.9427V115.738H86.4069V120.886C86.9632 119.679 88.0233 119.065 89.5872 119.044ZM95.3343 119.091H96.7985V127.42H95.3343V119.091ZM96.0586 115.769C96.321 115.769 96.5361 115.859 96.7041 116.037C96.8825 116.216 96.9717 116.441 96.9717 116.714C96.9717 116.987 96.8825 117.213 96.7041 117.391C96.5361 117.569 96.321 117.659 96.0586 117.659C95.7962 117.659 95.5757 117.569 95.3973 117.391C95.2294 117.213 95.1454 116.987 95.1454 116.714C95.1454 116.441 95.2294 116.216 95.3973 116.037C95.5757 115.859 95.7962 115.769 96.0586 115.769ZM104.205 120.933C103.858 120.724 103.475 120.556 103.055 120.43C102.646 120.304 102.252 120.241 101.875 120.241C101.434 120.241 101.077 120.325 100.804 120.493C100.542 120.65 100.41 120.897 100.41 121.233C100.41 121.568 100.557 121.826 100.851 122.004C101.156 122.172 101.612 122.345 102.221 122.524C102.798 122.692 103.271 122.859 103.638 123.027C104.005 123.195 104.315 123.442 104.567 123.767C104.829 124.093 104.96 124.523 104.96 125.058C104.96 125.846 104.661 126.444 104.063 126.853C103.475 127.263 102.741 127.467 101.859 127.467C101.24 127.467 100.636 127.368 100.048 127.168C99.471 126.969 98.983 126.685 98.5841 126.318L99.1352 125.247C99.4815 125.562 99.9066 125.814 100.41 126.003C100.925 126.192 101.423 126.286 101.906 126.286C102.389 126.286 102.777 126.197 103.071 126.019C103.365 125.84 103.512 125.567 103.512 125.2C103.512 124.822 103.355 124.539 103.04 124.35C102.735 124.161 102.268 123.972 101.638 123.783C101.082 123.626 100.626 123.468 100.269 123.311C99.9224 123.143 99.6232 122.901 99.3713 122.587C99.1299 122.272 99.0092 121.862 99.0092 121.359C99.0092 120.582 99.2926 119.999 99.8594 119.611C100.426 119.223 101.135 119.028 101.985 119.028C102.489 119.028 102.982 119.102 103.465 119.249C103.958 119.385 104.383 119.574 104.74 119.816L104.205 120.933ZM107.101 125.751C107.342 125.751 107.542 125.835 107.699 126.003C107.867 126.171 107.951 126.386 107.951 126.649C107.951 126.911 107.867 127.131 107.699 127.31C107.542 127.478 107.342 127.562 107.101 127.562C106.86 127.562 106.655 127.478 106.487 127.31C106.319 127.131 106.235 126.911 106.235 126.649C106.235 126.386 106.319 126.171 106.487 126.003C106.655 125.835 106.86 125.751 107.101 125.751ZM114.785 119.044C115.761 119.044 116.527 119.333 117.083 119.91C117.639 120.477 117.918 121.264 117.918 122.272V127.42H116.453V122.665C116.453 121.962 116.254 121.416 115.855 121.028C115.467 120.629 114.926 120.43 114.234 120.43C113.488 120.44 112.88 120.682 112.407 121.154C111.945 121.616 111.683 122.219 111.62 122.964V127.42H110.156V119.091H111.62V120.855C112.176 119.669 113.231 119.065 114.785 119.044ZM125.619 127.42V126.255C125 127.074 124.029 127.483 122.707 127.483C122.129 127.483 121.62 127.373 121.179 127.152C120.749 126.932 120.413 126.628 120.172 126.239C119.941 125.851 119.825 125.415 119.825 124.932C119.825 124.187 120.098 123.599 120.644 123.169C121.2 122.728 121.972 122.503 122.959 122.492H125.604V122.099C125.604 121.511 125.42 121.059 125.052 120.745C124.696 120.419 124.171 120.256 123.478 120.256C122.638 120.256 121.783 120.556 120.912 121.154L120.298 120.146C120.896 119.758 121.447 119.48 121.951 119.312C122.465 119.133 123.074 119.044 123.777 119.044C124.816 119.044 125.619 119.301 126.186 119.816C126.753 120.319 127.041 121.028 127.052 121.941L127.068 127.42H125.619ZM123.006 126.271C123.688 126.271 124.265 126.108 124.738 125.783C125.22 125.447 125.509 125.006 125.604 124.46V123.626H123.163C122.502 123.626 122.009 123.725 121.683 123.925C121.368 124.124 121.211 124.439 121.211 124.869C121.211 125.3 121.374 125.641 121.699 125.893C122.024 126.145 122.46 126.271 123.006 126.271ZM140.435 119.044C141.39 119.044 142.141 119.333 142.687 119.91C143.232 120.487 143.505 121.275 143.505 122.272V127.42H142.025V122.665C142.025 121.962 141.831 121.411 141.443 121.012C141.065 120.613 140.54 120.414 139.868 120.414C139.081 120.435 138.462 120.713 138.011 121.248C137.559 121.784 137.334 122.471 137.334 123.311V127.42H135.854V122.665C135.854 121.962 135.665 121.411 135.287 121.012C134.909 120.613 134.379 120.414 133.697 120.414C132.91 120.435 132.285 120.713 131.823 121.248C131.372 121.784 131.146 122.471 131.146 123.311V127.42H129.682V119.091H131.146V120.839C131.692 119.663 132.726 119.065 134.248 119.044C135.014 119.044 135.649 119.228 136.153 119.595C136.667 119.963 137.014 120.477 137.192 121.138C137.706 119.763 138.787 119.065 140.435 119.044ZM149.456 119.044C150.747 119.044 151.723 119.427 152.384 120.193C153.045 120.949 153.376 122.004 153.376 123.358C153.376 123.568 153.371 123.725 153.36 123.83H146.779C146.895 124.576 147.204 125.169 147.708 125.609C148.222 126.05 148.852 126.271 149.597 126.271C150.091 126.271 150.547 126.181 150.967 126.003C151.397 125.825 151.77 125.573 152.085 125.247L152.888 126.082C152.479 126.523 151.985 126.864 151.408 127.105C150.831 127.347 150.19 127.467 149.487 127.467C148.668 127.467 147.939 127.294 147.299 126.948C146.669 126.591 146.176 126.092 145.819 125.452C145.472 124.812 145.299 124.082 145.299 123.264C145.299 122.445 145.472 121.721 145.819 121.091C146.176 120.451 146.669 119.952 147.299 119.595C147.929 119.228 148.647 119.044 149.456 119.044ZM152.053 122.697C152.011 121.941 151.76 121.348 151.298 120.918C150.836 120.477 150.227 120.256 149.471 120.256C148.737 120.256 148.123 120.477 147.629 120.918C147.147 121.359 146.858 121.952 146.763 122.697H152.053ZM158.628 120.178H165.272V121.217H158.628V120.178ZM158.628 123.437H165.272V124.476H158.628V123.437ZM170.906 116.399H172.056V120.068H170.906V116.399ZM173.126 116.399H174.276V120.068H173.126V116.399ZM181.533 116.383C182.363 116.383 183.082 116.499 183.69 116.73C184.31 116.95 184.787 117.27 185.123 117.69C185.459 118.11 185.627 118.603 185.627 119.17C185.627 119.747 185.454 120.251 185.107 120.682C184.771 121.112 184.31 121.406 183.722 121.563C184.425 121.7 184.976 122.02 185.375 122.524C185.784 123.027 185.989 123.636 185.989 124.35C185.989 124.969 185.816 125.515 185.469 125.987C185.123 126.449 184.63 126.806 183.989 127.058C183.349 127.299 182.599 127.42 181.738 127.42H176.291V116.383H181.533ZM181.376 120.776C181.775 120.776 182.09 120.682 182.321 120.493C182.551 120.293 182.667 120.02 182.667 119.674C182.667 119.338 182.551 119.081 182.321 118.902C182.09 118.714 181.775 118.624 181.376 118.635H179.172V120.776H181.376ZM181.376 125.184C181.88 125.184 182.279 125.079 182.572 124.869C182.866 124.66 183.013 124.366 183.013 123.988C183.013 123.641 182.866 123.369 182.572 123.169C182.279 122.959 181.88 122.859 181.376 122.87H179.172V125.184H181.376ZM193.26 118.792C194.204 118.792 194.955 119.086 195.511 119.674C196.078 120.262 196.361 121.054 196.361 122.051V127.42H193.559V122.854C193.559 122.371 193.428 121.994 193.165 121.721C192.913 121.437 192.562 121.296 192.11 121.296C191.596 121.306 191.187 121.49 190.882 121.847C190.589 122.193 190.442 122.65 190.442 123.216V127.42H187.639V115.738H190.442V120.288C190.746 119.795 191.134 119.422 191.607 119.17C192.089 118.918 192.641 118.792 193.26 118.792ZM202.088 118.792C203.263 118.792 204.176 119.065 204.827 119.611C205.478 120.146 205.808 120.902 205.819 121.878V127.42H203.064V126.46C202.497 127.184 201.642 127.546 200.497 127.546C199.595 127.546 198.881 127.305 198.356 126.822C197.842 126.328 197.585 125.683 197.585 124.885C197.585 124.077 197.863 123.447 198.419 122.996C198.986 122.545 199.794 122.314 200.844 122.303H203.064V122.209C203.064 121.799 202.922 121.484 202.639 121.264C202.366 121.044 201.967 120.933 201.442 120.933C201.085 120.933 200.681 120.991 200.23 121.107C199.789 121.222 199.343 121.39 198.892 121.61L198.12 119.721C198.813 119.406 199.474 119.175 200.104 119.028C200.744 118.871 201.405 118.792 202.088 118.792ZM201.363 125.641C201.783 125.641 202.151 125.541 202.465 125.342C202.78 125.132 202.98 124.864 203.064 124.539V123.799H201.395C200.608 123.799 200.214 124.093 200.214 124.681C200.214 124.974 200.314 125.211 200.513 125.389C200.723 125.557 201.007 125.641 201.363 125.641ZM210.504 120.319C210.798 119.826 211.176 119.448 211.638 119.186C212.11 118.923 212.645 118.792 213.244 118.792V121.359C213.149 121.348 213.007 121.343 212.819 121.343C212.157 121.343 211.622 121.5 211.213 121.815C210.803 122.12 210.567 122.539 210.504 123.075V127.42H207.702V118.902H210.504V120.319ZM218.078 118.792C219.253 118.792 220.166 119.065 220.817 119.611C221.468 120.146 221.798 120.902 221.809 121.878V127.42H219.054V126.46C218.487 127.184 217.632 127.546 216.487 127.546C215.585 127.546 214.871 127.305 214.346 126.822C213.832 126.328 213.575 125.683 213.575 124.885C213.575 124.077 213.853 123.447 214.409 122.996C214.976 122.545 215.784 122.314 216.834 122.303H219.054V122.209C219.054 121.799 218.912 121.484 218.629 121.264C218.356 121.044 217.957 120.933 217.432 120.933C217.075 120.933 216.671 120.991 216.22 121.107C215.779 121.222 215.333 121.39 214.882 121.61L214.11 119.721C214.803 119.406 215.464 119.175 216.094 119.028C216.734 118.871 217.395 118.792 218.078 118.792ZM217.353 125.641C217.773 125.641 218.141 125.541 218.455 125.342C218.77 125.132 218.97 124.864 219.054 124.539V123.799H217.385C216.598 123.799 216.204 124.093 216.204 124.681C216.204 124.974 216.304 125.211 216.503 125.389C216.713 125.557 216.997 125.641 217.353 125.641ZM229.234 126.979C228.919 127.158 228.557 127.299 228.147 127.404C227.738 127.499 227.323 127.546 226.903 127.546C226.064 127.546 225.382 127.305 224.857 126.822C224.342 126.339 224.085 125.672 224.085 124.822V121.17H222.905V119.312H224.085V116.95H226.872V119.312H229.076V121.17H226.872V124.381C226.872 124.98 227.119 125.279 227.612 125.279C227.916 125.279 228.278 125.184 228.698 124.995L229.234 126.979ZM244.666 127.42H241.218L238.321 123.138L236.936 124.681V127.42H234.054V116.383H236.936V121.17L241.076 116.383H244.414L240.321 120.933L244.666 127.42ZM249.689 118.792C250.864 118.792 251.777 119.065 252.428 119.611C253.079 120.146 253.409 120.902 253.42 121.878V127.42H250.665V126.46C250.098 127.184 249.243 127.546 248.098 127.546C247.196 127.546 246.482 127.305 245.957 126.822C245.443 126.328 245.186 125.683 245.186 124.885C245.186 124.077 245.464 123.447 246.02 122.996C246.587 122.545 247.395 122.314 248.445 122.303H250.665V122.209C250.665 121.799 250.523 121.484 250.24 121.264C249.967 121.044 249.568 120.933 249.043 120.933C248.686 120.933 248.282 120.991 247.831 121.107C247.39 121.222 246.944 121.39 246.493 121.61L245.721 119.721C246.414 119.406 247.075 119.175 247.705 119.028C248.345 118.871 249.006 118.792 249.689 118.792ZM248.964 125.641C249.384 125.641 249.752 125.541 250.066 125.342C250.381 125.132 250.581 124.864 250.665 124.539V123.799H248.996C248.209 123.799 247.815 124.093 247.815 124.681C247.815 124.974 247.915 125.211 248.114 125.389C248.324 125.557 248.608 125.641 248.964 125.641ZM260.986 121.595C259.884 121.017 258.982 120.729 258.278 120.729C258.037 120.729 257.843 120.776 257.696 120.87C257.549 120.954 257.475 121.086 257.475 121.264C257.475 121.453 257.591 121.605 257.822 121.721C258.053 121.836 258.42 121.962 258.924 122.099C259.533 122.277 260.036 122.455 260.435 122.634C260.845 122.802 261.196 123.064 261.49 123.421C261.784 123.767 261.931 124.224 261.931 124.791C261.931 125.651 261.595 126.328 260.923 126.822C260.262 127.305 259.396 127.546 258.326 127.546C257.601 127.546 256.909 127.446 256.247 127.247C255.586 127.037 254.998 126.732 254.484 126.334L255.366 124.523C255.849 124.859 256.352 125.121 256.877 125.31C257.412 125.489 257.916 125.578 258.389 125.578C258.661 125.578 258.877 125.536 259.034 125.452C259.202 125.358 259.286 125.226 259.286 125.058C259.286 124.848 259.165 124.686 258.924 124.57C258.693 124.455 258.326 124.329 257.822 124.192C257.223 124.014 256.73 123.841 256.342 123.673C255.953 123.494 255.612 123.232 255.318 122.886C255.035 122.539 254.893 122.088 254.893 121.532C254.893 120.671 255.219 119.999 255.87 119.516C256.52 119.023 257.36 118.777 258.389 118.777C259.008 118.777 259.617 118.86 260.215 119.028C260.824 119.196 261.396 119.443 261.931 119.768L260.986 121.595ZM267.183 118.808C268.569 118.808 269.634 119.217 270.379 120.036C271.124 120.855 271.497 121.978 271.497 123.405C271.497 123.626 271.492 123.794 271.481 123.909H265.562C265.698 124.392 265.934 124.764 266.27 125.027C266.606 125.279 267.015 125.405 267.498 125.405C267.865 125.405 268.217 125.331 268.553 125.184C268.899 125.037 269.214 124.822 269.498 124.539L270.962 126.003C270.521 126.496 269.986 126.874 269.356 127.137C268.737 127.388 268.033 127.514 267.246 127.514C266.333 127.514 265.535 127.336 264.853 126.979C264.171 126.622 263.646 126.118 263.279 125.468C262.922 124.817 262.743 124.061 262.743 123.201C262.743 122.329 262.927 121.563 263.294 120.902C263.662 120.23 264.181 119.716 264.853 119.359C265.525 118.992 266.302 118.808 267.183 118.808ZM268.773 122.413C268.773 121.92 268.626 121.526 268.332 121.233C268.049 120.928 267.671 120.776 267.199 120.776C266.758 120.776 266.385 120.923 266.081 121.217C265.787 121.511 265.593 121.91 265.499 122.413H268.773ZM275.725 120.319C276.019 119.826 276.397 119.448 276.858 119.186C277.331 118.923 277.866 118.792 278.464 118.792V121.359C278.37 121.348 278.228 121.343 278.039 121.343C277.378 121.343 276.843 121.5 276.433 121.815C276.024 122.12 275.788 122.539 275.725 123.075V127.42H272.922V118.902H275.725V120.319ZM283.298 118.792C284.474 118.792 285.387 119.065 286.038 119.611C286.689 120.146 287.019 120.902 287.03 121.878V127.42H284.275V126.46C283.708 127.184 282.852 127.546 281.708 127.546C280.806 127.546 280.092 127.305 279.567 126.822C279.053 126.328 278.796 125.683 278.796 124.885C278.796 124.077 279.074 123.447 279.63 122.996C280.197 122.545 281.005 122.314 282.055 122.303H284.275V122.209C284.275 121.799 284.133 121.484 283.849 121.264C283.577 121.044 283.178 120.933 282.653 120.933C282.296 120.933 281.892 120.991 281.441 121.107C281 121.222 280.554 121.39 280.102 121.61L279.331 119.721C280.024 119.406 280.685 119.175 281.315 119.028C281.955 118.871 282.616 118.792 283.298 118.792ZM282.574 125.641C282.994 125.641 283.361 125.541 283.676 125.342C283.991 125.132 284.191 124.864 284.275 124.539V123.799H282.606C281.818 123.799 281.425 124.093 281.425 124.681C281.425 124.974 281.525 125.211 281.724 125.389C281.934 125.557 282.217 125.641 282.574 125.641ZM288.787 116.399H289.936V120.068H288.787V116.399ZM291.006 116.399H292.156V120.068H291.006V116.399ZM294.738 121.075C294.979 121.075 295.178 121.159 295.336 121.327C295.504 121.495 295.588 121.71 295.588 121.973C295.588 122.235 295.504 122.455 295.336 122.634C295.178 122.802 294.979 122.886 294.738 122.886C294.496 122.886 294.291 122.802 294.123 122.634C293.956 122.455 293.872 122.235 293.872 121.973C293.872 121.71 293.956 121.495 294.123 121.327C294.291 121.159 294.496 121.075 294.738 121.075ZM294.738 125.798C294.968 125.798 295.163 125.877 295.32 126.035C295.488 126.192 295.572 126.402 295.572 126.664C295.572 126.78 295.546 126.9 295.493 127.026C295.451 127.152 295.404 127.273 295.352 127.388L294.501 129.183H293.698L294.328 127.404C294.181 127.331 294.071 127.231 293.998 127.105C293.924 126.969 293.887 126.822 293.887 126.664C293.887 126.412 293.966 126.208 294.123 126.05C294.291 125.882 294.496 125.798 294.738 125.798Z" fill="#F9826C"/>
<path d="M43.8324 157.072V158.426H42.132V161.26H40.7151V158.426H35.2519V157.261L39.1879 150.239H40.6678L36.8893 157.072H40.7151V154.254H42.132V157.072H43.8324ZM83.1699 160.709C82.5296 161.118 81.8789 161.323 81.2176 161.323C80.5564 161.323 80.0211 161.129 79.6117 160.74C79.2024 160.342 78.9977 159.743 78.9977 158.946V154.333H77.8169V153.215H78.9977V150.979H80.4777V153.215H83.0282V154.333H80.4777V158.678C80.4777 159.14 80.5616 159.47 80.7296 159.67C80.8975 159.869 81.1494 159.969 81.4853 159.969C81.8841 159.969 82.3145 159.838 82.7763 159.575L83.1699 160.709ZM89.6794 152.884C90.6555 152.884 91.4217 153.173 91.978 153.75C92.5343 154.317 92.8125 155.104 92.8125 156.112V161.26H91.3483V156.505C91.3483 155.802 91.1488 155.256 90.75 154.868C90.3616 154.469 89.8211 154.27 89.1284 154.27C88.3202 154.28 87.6799 154.553 87.2076 155.088C86.7353 155.624 86.4991 156.316 86.4991 157.167V161.26H85.0349V149.578H86.4991V154.726C87.0554 153.519 88.1155 152.905 89.6794 152.884ZM95.4266 152.931H96.8908V161.26H95.4266V152.931ZM96.1508 149.609C96.4132 149.609 96.6284 149.699 96.7963 149.877C96.9747 150.056 97.064 150.281 97.064 150.554C97.064 150.827 96.9747 151.053 96.7963 151.231C96.6284 151.41 96.4132 151.499 96.1508 151.499C95.8884 151.499 95.668 151.41 95.4896 151.231C95.3216 151.053 95.2377 150.827 95.2377 150.554C95.2377 150.281 95.3216 150.056 95.4896 149.877C95.668 149.699 95.8884 149.609 96.1508 149.609ZM104.297 154.773C103.951 154.564 103.567 154.396 103.148 154.27C102.738 154.144 102.345 154.081 101.967 154.081C101.526 154.081 101.169 154.165 100.896 154.333C100.634 154.49 100.503 154.737 100.503 155.073C100.503 155.408 100.65 155.666 100.943 155.844C101.248 156.012 101.704 156.185 102.313 156.364C102.891 156.532 103.363 156.699 103.73 156.867C104.098 157.035 104.407 157.282 104.659 157.607C104.921 157.933 105.053 158.363 105.053 158.898C105.053 159.686 104.754 160.284 104.155 160.693C103.567 161.103 102.833 161.307 101.951 161.307C101.332 161.307 100.728 161.208 100.141 161.008C99.5633 160.809 99.0752 160.525 98.6764 160.158L99.2274 159.087C99.5738 159.402 99.9989 159.654 100.503 159.843C101.017 160.032 101.516 160.126 101.998 160.126C102.481 160.126 102.87 160.037 103.163 159.859C103.457 159.68 103.604 159.407 103.604 159.04C103.604 158.662 103.447 158.379 103.132 158.19C102.828 158.001 102.36 157.812 101.731 157.623C101.174 157.466 100.718 157.308 100.361 157.151C100.015 156.983 99.7155 156.741 99.4636 156.427C99.2222 156.112 99.1015 155.702 99.1015 155.199C99.1015 154.422 99.3848 153.839 99.9516 153.451C100.518 153.063 101.227 152.868 102.077 152.868C102.581 152.868 103.074 152.942 103.557 153.089C104.05 153.225 104.475 153.414 104.832 153.656L104.297 154.773ZM107.193 159.591C107.435 159.591 107.634 159.675 107.792 159.843C107.959 160.011 108.043 160.226 108.043 160.489C108.043 160.751 107.959 160.971 107.792 161.15C107.634 161.318 107.435 161.402 107.193 161.402C106.952 161.402 106.747 161.318 106.579 161.15C106.411 160.971 106.327 160.751 106.327 160.489C106.327 160.226 106.411 160.011 106.579 159.843C106.747 159.675 106.952 159.591 107.193 159.591ZM114.719 160.709C114.079 161.118 113.428 161.323 112.767 161.323C112.106 161.323 111.571 161.129 111.161 160.74C110.752 160.342 110.547 159.743 110.547 158.946V154.333H109.366V153.215H110.547V150.979H112.027V153.215H114.578V154.333H112.027V158.678C112.027 159.14 112.111 159.47 112.279 159.67C112.447 159.869 112.699 159.969 113.035 159.969C113.434 159.969 113.864 159.838 114.326 159.575L114.719 160.709ZM117.97 154.726C118.243 154.128 118.631 153.677 119.135 153.372C119.639 153.057 120.237 152.895 120.93 152.884V154.301C120.08 154.27 119.392 154.49 118.867 154.962C118.343 155.435 118.043 156.07 117.97 156.867V161.26H116.506V152.931H117.97V154.726ZM127.234 161.26V160.095C126.614 160.914 125.644 161.323 124.321 161.323C123.744 161.323 123.235 161.213 122.794 160.992C122.364 160.772 122.028 160.468 121.786 160.079C121.555 159.691 121.44 159.255 121.44 158.772C121.44 158.027 121.713 157.439 122.259 157.009C122.815 156.568 123.586 156.343 124.573 156.332H127.218V155.939C127.218 155.351 127.034 154.899 126.667 154.585C126.31 154.259 125.785 154.096 125.092 154.096C124.253 154.096 123.397 154.396 122.526 154.994L121.912 153.986C122.51 153.598 123.061 153.32 123.565 153.152C124.08 152.973 124.688 152.884 125.392 152.884C126.431 152.884 127.234 153.141 127.8 153.656C128.367 154.159 128.656 154.868 128.666 155.781L128.682 161.26H127.234ZM124.62 160.111C125.302 160.111 125.88 159.948 126.352 159.623C126.835 159.287 127.123 158.846 127.218 158.3V157.466H124.778C124.116 157.466 123.623 157.565 123.298 157.765C122.983 157.964 122.825 158.279 122.825 158.709C122.825 159.14 122.988 159.481 123.313 159.733C123.639 159.985 124.074 160.111 124.62 160.111ZM131.296 152.931H132.761V161.26H131.296V152.931ZM132.021 149.609C132.283 149.609 132.498 149.699 132.666 149.877C132.845 150.056 132.934 150.281 132.934 150.554C132.934 150.827 132.845 151.053 132.666 151.231C132.498 151.41 132.283 151.499 132.021 151.499C131.758 151.499 131.538 151.41 131.359 151.231C131.191 151.053 131.108 150.827 131.108 150.554C131.108 150.281 131.191 150.056 131.359 149.877C131.538 149.699 131.758 149.609 132.021 149.609ZM140.088 160.709C139.448 161.118 138.797 161.323 138.136 161.323C137.475 161.323 136.939 161.129 136.53 160.74C136.121 160.342 135.916 159.743 135.916 158.946V154.333H134.735V153.215H135.916V150.979H137.396V153.215H139.946V154.333H137.396V158.678C137.396 159.14 137.48 159.47 137.648 159.67C137.816 159.869 138.068 159.969 138.404 159.969C138.802 159.969 139.233 159.838 139.695 159.575L140.088 160.709ZM146.424 154.773C146.078 154.564 145.695 154.396 145.275 154.27C144.866 154.144 144.472 154.081 144.094 154.081C143.654 154.081 143.297 154.165 143.024 154.333C142.761 154.49 142.63 154.737 142.63 155.073C142.63 155.408 142.777 155.666 143.071 155.844C143.375 156.012 143.832 156.185 144.441 156.364C145.018 156.532 145.49 156.699 145.858 156.867C146.225 157.035 146.535 157.282 146.787 157.607C147.049 157.933 147.18 158.363 147.18 158.898C147.18 159.686 146.881 160.284 146.283 160.693C145.695 161.103 144.96 161.307 144.079 161.307C143.459 161.307 142.856 161.208 142.268 161.008C141.691 160.809 141.203 160.525 140.804 160.158L141.355 159.087C141.701 159.402 142.126 159.654 142.63 159.843C143.144 160.032 143.643 160.126 144.126 160.126C144.609 160.126 144.997 160.037 145.291 159.859C145.585 159.68 145.732 159.407 145.732 159.04C145.732 158.662 145.574 158.379 145.259 158.19C144.955 158.001 144.488 157.812 143.858 157.623C143.302 157.466 142.845 157.308 142.488 157.151C142.142 156.983 141.843 156.741 141.591 156.427C141.35 156.112 141.229 155.702 141.229 155.199C141.229 154.422 141.512 153.839 142.079 153.451C142.646 153.063 143.354 152.868 144.205 152.868C144.708 152.868 145.202 152.942 145.685 153.089C146.178 153.225 146.603 153.414 146.96 153.656L146.424 154.773ZM152.371 154.018H159.015V155.057H152.371V154.018ZM152.371 157.277H159.015V158.316H152.371V157.277ZM165.09 149.578H168.38V150.775H166.412V162.016H168.38V163.212H165.09V149.578ZM169.676 150.239H170.826V153.908H169.676V150.239ZM171.896 150.239H173.046V153.908H171.896V150.239ZM179.815 150.223C180.97 150.223 181.988 150.454 182.87 150.916C183.762 151.378 184.455 152.029 184.948 152.868C185.441 153.698 185.688 154.653 185.688 155.734C185.688 156.815 185.436 157.775 184.932 158.615C184.439 159.455 183.736 160.105 182.822 160.567C181.92 161.029 180.881 161.26 179.705 161.26H175.061V150.223H179.815ZM179.894 158.93C180.45 158.93 180.944 158.799 181.374 158.536C181.804 158.274 182.14 157.901 182.382 157.418C182.623 156.936 182.744 156.385 182.744 155.765C182.744 155.136 182.612 154.579 182.35 154.096C182.098 153.614 181.747 153.241 181.295 152.979C180.844 152.706 180.33 152.569 179.752 152.569H177.942V158.93H179.894ZM187.115 150.223H195.821V152.522H189.996V154.585H195.254V156.867L189.996 156.883V158.961H195.978V161.26H187.115V150.223ZM196.637 150.223H199.738L202.493 158.206L205.264 150.223H208.224L203.91 161.26H200.919L196.637 150.223ZM209.144 150.239H210.293V153.908H209.144V150.239ZM211.364 150.239H212.513V153.908H211.364V150.239ZM215.095 159.638C215.326 159.638 215.52 159.717 215.678 159.875C215.845 160.032 215.929 160.242 215.929 160.504C215.929 160.62 215.903 160.74 215.851 160.866C215.809 160.992 215.761 161.113 215.709 161.229L214.859 163.023H214.056L214.686 161.244C214.539 161.171 214.429 161.071 214.355 160.945C214.282 160.809 214.245 160.662 214.245 160.504C214.245 160.252 214.324 160.048 214.481 159.89C214.649 159.722 214.854 159.638 215.095 159.638ZM221.736 150.239H222.885V153.908H221.736V150.239ZM223.956 150.239H225.105V153.908H223.956V150.239ZM231.875 150.223C233.03 150.223 234.048 150.454 234.929 150.916C235.822 151.378 236.514 152.029 237.008 152.868C237.501 153.698 237.748 154.653 237.748 155.734C237.748 156.815 237.496 157.775 236.992 158.615C236.499 159.455 235.795 160.105 234.882 160.567C233.979 161.029 232.94 161.26 231.765 161.26H227.12V150.223H231.875ZM231.954 158.93C232.51 158.93 233.003 158.799 233.434 158.536C233.864 158.274 234.2 157.901 234.441 157.418C234.683 156.936 234.803 156.385 234.803 155.765C234.803 155.136 234.672 154.579 234.41 154.096C234.158 153.614 233.806 153.241 233.355 152.979C232.904 152.706 232.389 152.569 231.812 152.569H230.002V158.93H231.954ZM239.174 150.223H247.881V152.522H242.056V154.585H247.314V156.867L242.056 156.883V158.961H248.038V161.26H239.174V150.223ZM257.403 153.545C256.815 153.199 256.185 152.916 255.514 152.695C254.852 152.475 254.296 152.365 253.845 152.365C253.488 152.365 253.204 152.433 252.994 152.569C252.795 152.695 252.695 152.884 252.695 153.136C252.695 153.378 252.785 153.582 252.963 153.75C253.141 153.908 253.362 154.039 253.624 154.144C253.887 154.238 254.275 154.364 254.789 154.522C255.556 154.742 256.185 154.962 256.679 155.183C257.182 155.403 257.613 155.744 257.97 156.206C258.326 156.658 258.505 157.251 258.505 157.985C258.505 158.72 258.311 159.35 257.922 159.875C257.534 160.389 256.999 160.777 256.316 161.04C255.645 161.302 254.894 161.433 254.065 161.433C253.152 161.433 252.239 161.276 251.326 160.961C250.423 160.635 249.641 160.195 248.98 159.638L250.098 157.387C250.654 157.88 251.31 158.284 252.066 158.599C252.832 158.914 253.509 159.072 254.097 159.072C254.527 159.072 254.863 158.993 255.104 158.835C255.356 158.678 255.482 158.447 255.482 158.143C255.482 157.891 255.388 157.681 255.199 157.513C255.02 157.345 254.789 157.214 254.506 157.119C254.233 157.014 253.845 156.894 253.341 156.757C252.585 156.547 251.961 156.337 251.467 156.127C250.974 155.907 250.549 155.582 250.192 155.151C249.846 154.711 249.673 154.128 249.673 153.404C249.673 152.722 249.851 152.123 250.208 151.609C250.575 151.095 251.089 150.701 251.751 150.428C252.422 150.145 253.199 150.003 254.081 150.003C254.879 150.003 255.666 150.119 256.442 150.349C257.219 150.57 257.901 150.869 258.489 151.247L257.403 153.545ZM259.977 150.223H262.858V161.26H259.977V150.223ZM272.31 155.624H274.797V160.016C274.209 160.447 273.485 160.798 272.624 161.071C271.774 161.333 270.966 161.465 270.2 161.465C269.087 161.465 268.08 161.218 267.177 160.725C266.285 160.221 265.582 159.533 265.067 158.662C264.553 157.791 264.296 156.815 264.296 155.734C264.296 154.663 264.558 153.698 265.083 152.837C265.618 151.966 266.348 151.284 267.271 150.79C268.206 150.297 269.245 150.05 270.389 150.05C271.207 150.05 272.026 150.202 272.845 150.507C273.664 150.801 274.356 151.2 274.923 151.703L273.286 153.719C272.887 153.341 272.425 153.042 271.9 152.821C271.386 152.601 270.877 152.491 270.373 152.491C269.785 152.491 269.255 152.632 268.783 152.916C268.311 153.199 267.938 153.587 267.665 154.081C267.392 154.574 267.256 155.125 267.256 155.734C267.256 156.353 267.392 156.915 267.665 157.418C267.938 157.912 268.316 158.3 268.799 158.584C269.281 158.867 269.817 159.009 270.405 159.009C270.961 159.009 271.596 158.83 272.31 158.473V155.624ZM284.246 150.223H286.923V161.26H284.404L279.397 154.663V161.26H276.705V150.223H279.24L284.262 156.867L284.246 150.223ZM288.956 150.239H290.105V153.908H288.956V150.239ZM291.176 150.239H292.325V153.908H291.176V150.239ZM296.906 149.578V163.212H293.616V162.016H295.584V150.775H293.616V149.578H296.906ZM299.934 154.915C300.176 154.915 300.375 154.999 300.533 155.167C300.7 155.335 300.784 155.55 300.784 155.813C300.784 156.075 300.7 156.295 300.533 156.474C300.375 156.642 300.176 156.726 299.934 156.726C299.693 156.726 299.488 156.642 299.32 156.474C299.152 156.295 299.068 156.075 299.068 155.813C299.068 155.55 299.152 155.335 299.32 155.167C299.488 154.999 299.693 154.915 299.934 154.915ZM299.934 159.638C300.165 159.638 300.359 159.717 300.517 159.875C300.685 160.032 300.769 160.242 300.769 160.504C300.769 160.62 300.742 160.74 300.69 160.866C300.648 160.992 300.601 161.113 300.548 161.229L299.698 163.023H298.895L299.525 161.244C299.378 161.171 299.268 161.071 299.194 160.945C299.121 160.809 299.084 160.662 299.084 160.504C299.084 160.252 299.163 160.048 299.32 159.89C299.488 159.722 299.693 159.638 299.934 159.638Z" fill="#F9826C"/>
<path d="M39.9908 188.188C40.799 188.188 41.5075 188.33 42.1163 188.613C42.7356 188.897 43.2079 189.29 43.5332 189.794C43.8691 190.298 44.0371 190.865 44.0371 191.495C44.0371 192.229 43.8639 192.875 43.5175 193.431C43.1816 193.987 42.6988 194.418 42.0691 194.722C41.4393 195.027 40.7098 195.179 39.8806 195.179C39.2299 195.179 38.5424 195.068 37.8182 194.848C37.1044 194.617 36.4642 194.313 35.8974 193.935L36.5114 192.723C36.9837 193.079 37.5033 193.352 38.0701 193.541C38.6369 193.73 39.1932 193.825 39.7389 193.825C40.5681 193.825 41.2241 193.625 41.7069 193.226C42.1898 192.828 42.4312 192.287 42.4312 191.605C42.4312 190.965 42.1898 190.466 41.7069 190.109C41.2241 189.742 40.5366 189.558 39.6445 189.558C39.3191 189.558 38.8468 189.579 38.2275 189.621C37.6083 189.663 37.1097 189.716 36.7318 189.779V184.079H43.5805V185.449H38.1488V188.251C38.6421 188.209 39.2561 188.188 39.9908 188.188ZM83.5543 194.549C82.914 194.958 82.2632 195.163 81.602 195.163C80.9407 195.163 80.4055 194.969 79.9961 194.58C79.5868 194.182 79.3821 193.583 79.3821 192.786V188.173H78.2013V187.055H79.3821V184.819H80.862V187.055H83.4126V188.173H80.862V192.518C80.862 192.98 80.946 193.31 81.1139 193.51C81.2819 193.709 81.5338 193.809 81.8696 193.809C82.2685 193.809 82.6988 193.678 83.1607 193.415L83.5543 194.549ZM90.0638 186.724C91.0399 186.724 91.8061 187.013 92.3624 187.59C92.9187 188.157 93.1968 188.944 93.1968 189.952V195.1H91.7326V190.345C91.7326 189.642 91.5332 189.096 91.1344 188.708C90.746 188.309 90.2055 188.11 89.5127 188.11C88.7045 188.12 88.0643 188.393 87.592 188.928C87.1197 189.464 86.8835 190.156 86.8835 191.007V195.1H85.4193V183.418H86.8835V188.566C87.4398 187.359 88.4999 186.745 90.0638 186.724ZM95.811 186.771H97.2751V195.1H95.811V186.771ZM96.5352 183.449C96.7976 183.449 97.0127 183.539 97.1807 183.717C97.3591 183.895 97.4483 184.121 97.4483 184.394C97.4483 184.667 97.3591 184.893 97.1807 185.071C97.0127 185.249 96.7976 185.339 96.5352 185.339C96.2728 185.339 96.0524 185.249 95.8739 185.071C95.706 184.893 95.622 184.667 95.622 184.394C95.622 184.121 95.706 183.895 95.8739 183.717C96.0524 183.539 96.2728 183.449 96.5352 183.449ZM104.681 188.613C104.335 188.404 103.952 188.236 103.532 188.11C103.123 187.984 102.729 187.921 102.351 187.921C101.91 187.921 101.554 188.005 101.281 188.173C101.018 188.33 100.887 188.577 100.887 188.913C100.887 189.248 101.034 189.506 101.328 189.684C101.632 189.852 102.089 190.025 102.698 190.204C103.275 190.372 103.747 190.539 104.115 190.707C104.482 190.875 104.792 191.122 105.043 191.447C105.306 191.773 105.437 192.203 105.437 192.738C105.437 193.526 105.138 194.124 104.54 194.533C103.952 194.943 103.217 195.147 102.335 195.147C101.716 195.147 101.113 195.047 100.525 194.848C99.9477 194.649 99.4596 194.365 99.0607 193.998L99.6118 192.927C99.9581 193.242 100.383 193.494 100.887 193.683C101.401 193.872 101.9 193.966 102.383 193.966C102.866 193.966 103.254 193.877 103.548 193.699C103.842 193.52 103.989 193.247 103.989 192.88C103.989 192.502 103.831 192.219 103.516 192.03C103.212 191.841 102.745 191.652 102.115 191.463C101.559 191.306 101.102 191.148 100.745 190.991C100.399 190.823 100.1 190.581 99.8479 190.267C99.6065 189.952 99.4858 189.542 99.4858 189.039C99.4858 188.262 99.7692 187.679 100.336 187.291C100.903 186.903 101.611 186.708 102.461 186.708C102.965 186.708 103.459 186.782 103.941 186.929C104.435 187.065 104.86 187.254 105.217 187.496L104.681 188.613ZM107.578 193.431C107.819 193.431 108.018 193.515 108.176 193.683C108.344 193.851 108.428 194.066 108.428 194.329C108.428 194.591 108.344 194.811 108.176 194.99C108.018 195.158 107.819 195.242 107.578 195.242C107.336 195.242 107.132 195.158 106.964 194.99C106.796 194.811 106.712 194.591 106.712 194.329C106.712 194.066 106.796 193.851 106.964 193.683C107.132 193.515 107.336 193.431 107.578 193.431ZM115.718 195.1V193.935C115.099 194.754 114.128 195.163 112.805 195.163C112.228 195.163 111.719 195.053 111.278 194.832C110.848 194.612 110.512 194.308 110.27 193.919C110.039 193.531 109.924 193.095 109.924 192.612C109.924 191.867 110.197 191.279 110.743 190.849C111.299 190.408 112.07 190.183 113.057 190.172H115.702V189.779C115.702 189.191 115.518 188.739 115.151 188.425C114.794 188.099 114.269 187.936 113.577 187.936C112.737 187.936 111.881 188.236 111.01 188.834L110.396 187.826C110.995 187.438 111.546 187.16 112.049 186.992C112.564 186.813 113.172 186.724 113.876 186.724C114.915 186.724 115.718 186.981 116.285 187.496C116.851 187.999 117.14 188.708 117.15 189.621L117.166 195.1H115.718ZM113.104 193.951C113.787 193.951 114.364 193.788 114.836 193.463C115.319 193.127 115.608 192.686 115.702 192.14V191.306H113.262C112.6 191.306 112.107 191.405 111.782 191.605C111.467 191.804 111.309 192.119 111.309 192.549C111.309 192.98 111.472 193.321 111.798 193.573C112.123 193.825 112.558 193.951 113.104 193.951ZM127.149 186.771V194.25C127.149 195.047 126.97 195.745 126.613 196.344C126.267 196.942 125.774 197.399 125.134 197.713C124.493 198.039 123.748 198.202 122.898 198.202C121.67 198.202 120.526 197.813 119.466 197.036L120.111 195.966C120.521 196.302 120.946 196.548 121.386 196.706C121.827 196.874 122.31 196.958 122.835 196.958C123.696 196.958 124.383 196.716 124.897 196.234C125.412 195.751 125.669 195.105 125.669 194.297V193.132C125.375 193.636 124.976 194.029 124.472 194.313C123.968 194.586 123.391 194.722 122.74 194.722C121.995 194.722 121.334 194.554 120.757 194.218C120.19 193.872 119.749 193.394 119.434 192.786C119.119 192.177 118.962 191.479 118.962 190.692C118.962 189.915 119.119 189.227 119.434 188.629C119.749 188.031 120.19 187.564 120.757 187.228C121.334 186.892 121.995 186.724 122.74 186.724C123.402 186.724 123.979 186.861 124.472 187.134C124.976 187.406 125.375 187.795 125.669 188.299V186.771H127.149ZM123.024 193.541C123.538 193.541 123.995 193.421 124.394 193.179C124.792 192.938 125.102 192.607 125.322 192.187C125.553 191.757 125.669 191.274 125.669 190.739C125.669 190.193 125.553 189.71 125.322 189.29C125.102 188.86 124.792 188.524 124.394 188.283C123.995 188.041 123.538 187.921 123.024 187.921C122.51 187.921 122.048 188.041 121.638 188.283C121.24 188.524 120.925 188.86 120.694 189.29C120.463 189.71 120.347 190.193 120.347 190.739C120.358 191.558 120.61 192.229 121.103 192.754C121.596 193.279 122.237 193.541 123.024 193.541ZM133.158 186.724C134.449 186.724 135.425 187.107 136.087 187.873C136.748 188.629 137.078 189.684 137.078 191.038C137.078 191.248 137.073 191.405 137.063 191.51H130.482C130.597 192.256 130.907 192.849 131.411 193.289C131.925 193.73 132.555 193.951 133.3 193.951C133.793 193.951 134.25 193.861 134.67 193.683C135.1 193.505 135.473 193.253 135.787 192.927L136.59 193.762C136.181 194.203 135.688 194.544 135.11 194.785C134.533 195.027 133.893 195.147 133.19 195.147C132.371 195.147 131.642 194.974 131.001 194.628C130.372 194.271 129.878 193.772 129.521 193.132C129.175 192.492 129.002 191.762 129.002 190.944C129.002 190.125 129.175 189.401 129.521 188.771C129.878 188.131 130.372 187.632 131.001 187.275C131.631 186.908 132.35 186.724 133.158 186.724ZM135.756 190.377C135.714 189.621 135.462 189.028 135 188.598C134.538 188.157 133.93 187.936 133.174 187.936C132.439 187.936 131.825 188.157 131.332 188.598C130.849 189.039 130.56 189.632 130.466 190.377H135.756ZM142.331 187.858H148.975V188.897H142.331V187.858ZM142.331 191.117H148.975V192.156H142.331V191.117ZM159.726 186.724C160.702 186.724 161.468 187.013 162.024 187.59C162.581 188.157 162.859 188.944 162.859 189.952V195.1H161.395V190.345C161.395 189.642 161.195 189.096 160.796 188.708C160.408 188.309 159.867 188.11 159.175 188.11C158.429 188.12 157.821 188.362 157.348 188.834C156.887 189.296 156.624 189.899 156.561 190.644V195.1H155.097V186.771H156.561V188.535C157.117 187.349 158.172 186.745 159.726 186.724ZM168.813 186.724C170.104 186.724 171.08 187.107 171.741 187.873C172.402 188.629 172.733 189.684 172.733 191.038C172.733 191.248 172.728 191.405 172.717 191.51H166.136C166.252 192.256 166.561 192.849 167.065 193.289C167.58 193.73 168.209 193.951 168.955 193.951C169.448 193.951 169.904 193.861 170.324 193.683C170.755 193.505 171.127 193.253 171.442 192.927L172.245 193.762C171.836 194.203 171.342 194.544 170.765 194.785C170.188 195.027 169.548 195.147 168.844 195.147C168.026 195.147 167.296 194.974 166.656 194.628C166.026 194.271 165.533 193.772 165.176 193.132C164.83 192.492 164.656 191.762 164.656 190.944C164.656 190.125 164.83 189.401 165.176 188.771C165.533 188.131 166.026 187.632 166.656 187.275C167.286 186.908 168.005 186.724 168.813 186.724ZM171.411 190.377C171.369 189.621 171.117 189.028 170.655 188.598C170.193 188.157 169.584 187.936 168.829 187.936C168.094 187.936 167.48 188.157 166.987 188.598C166.504 189.039 166.215 189.632 166.121 190.377H171.411ZM173.069 186.771H174.596L176.926 193.652L179.225 186.771H180.752L183.066 193.652L185.365 186.771H186.876L183.806 195.1H182.279L179.98 188.55L177.682 195.1H176.154L173.069 186.771ZM196.995 184.079C198.065 184.079 199.031 184.321 199.892 184.803C200.763 185.276 201.445 185.932 201.938 186.771C202.432 187.611 202.678 188.55 202.678 189.59C202.678 190.629 202.426 191.568 201.923 192.408C201.429 193.247 200.747 193.909 199.876 194.391C199.005 194.864 198.029 195.1 196.947 195.1H192.508V184.079H196.995ZM197.026 193.73C197.792 193.73 198.485 193.552 199.104 193.195C199.734 192.838 200.227 192.345 200.584 191.715C200.952 191.085 201.135 190.382 201.135 189.605C201.135 188.818 200.952 188.11 200.584 187.48C200.217 186.85 199.713 186.357 199.073 186C198.443 185.633 197.74 185.449 196.963 185.449H194.019V193.73H197.026ZM209.782 195.1V193.935C209.163 194.754 208.192 195.163 206.869 195.163C206.292 195.163 205.783 195.053 205.342 194.832C204.912 194.612 204.576 194.308 204.335 193.919C204.104 193.531 203.988 193.095 203.988 192.612C203.988 191.867 204.261 191.279 204.807 190.849C205.363 190.408 206.135 190.183 207.121 190.172H209.766V189.779C209.766 189.191 209.583 188.739 209.215 188.425C208.858 188.099 208.334 187.936 207.641 187.936C206.801 187.936 205.946 188.236 205.075 188.834L204.461 187.826C205.059 187.438 205.61 187.16 206.114 186.992C206.628 186.813 207.237 186.724 207.94 186.724C208.979 186.724 209.782 186.981 210.349 187.496C210.916 187.999 211.204 188.708 211.215 189.621L211.23 195.1H209.782ZM207.169 193.951C207.851 193.951 208.428 193.788 208.9 193.463C209.383 193.127 209.672 192.686 209.766 192.14V191.306H207.326C206.665 191.306 206.171 191.405 205.846 191.605C205.531 191.804 205.374 192.119 205.374 192.549C205.374 192.98 205.536 193.321 205.862 193.573C206.187 193.825 206.623 193.951 207.169 193.951ZM218.316 194.549C217.676 194.958 217.025 195.163 216.364 195.163C215.703 195.163 215.167 194.969 214.758 194.58C214.349 194.182 214.144 193.583 214.144 192.786V188.173H212.963V187.055H214.144V184.819H215.624V187.055H218.174V188.173H215.624V192.518C215.624 192.98 215.708 193.31 215.876 193.51C216.044 193.709 216.296 193.809 216.632 193.809C217.03 193.809 217.461 193.678 217.923 193.415L218.316 194.549ZM223.333 186.724C224.624 186.724 225.6 187.107 226.261 187.873C226.922 188.629 227.253 189.684 227.253 191.038C227.253 191.248 227.248 191.405 227.237 191.51H220.656C220.772 192.256 221.081 192.849 221.585 193.289C222.099 193.73 222.729 193.951 223.474 193.951C223.968 193.951 224.424 193.861 224.844 193.683C225.274 193.505 225.647 193.253 225.962 192.927L226.765 193.762C226.355 194.203 225.862 194.544 225.285 194.785C224.708 195.027 224.067 195.147 223.364 195.147C222.545 195.147 221.816 194.974 221.176 194.628C220.546 194.271 220.053 193.772 219.696 193.132C219.349 192.492 219.176 191.762 219.176 190.944C219.176 190.125 219.349 189.401 219.696 188.771C220.053 188.131 220.546 187.632 221.176 187.275C221.805 186.908 222.524 186.724 223.333 186.724ZM225.93 190.377C225.888 189.621 225.636 189.028 225.175 188.598C224.713 188.157 224.104 187.936 223.348 187.936C222.614 187.936 222 188.157 221.506 188.598C221.023 189.039 220.735 189.632 220.64 190.377H225.93ZM232.273 183.418C231.686 184.321 231.229 185.36 230.904 186.535C230.589 187.711 230.431 188.944 230.431 190.235C230.431 191.526 230.589 192.759 230.904 193.935C231.229 195.11 231.686 196.15 232.273 197.052H230.919C230.311 196.16 229.844 195.131 229.518 193.966C229.193 192.791 229.03 191.547 229.03 190.235C229.03 188.923 229.193 187.685 229.518 186.519C229.844 185.344 230.311 184.31 230.919 183.418H232.273ZM234.284 183.418C234.893 184.31 235.36 185.344 235.685 186.519C236.011 187.685 236.173 188.923 236.173 190.235C236.173 191.547 236.011 192.791 235.685 193.966C235.36 195.131 234.893 196.16 234.284 197.052H232.93C233.518 196.15 233.969 195.11 234.284 193.935C234.609 192.759 234.772 191.526 234.772 190.235C234.772 188.944 234.609 187.711 234.284 186.535C233.969 185.36 233.518 184.321 232.93 183.418H234.284ZM239.019 193.431C239.26 193.431 239.459 193.515 239.617 193.683C239.785 193.851 239.869 194.066 239.869 194.329C239.869 194.591 239.785 194.811 239.617 194.99C239.459 195.158 239.26 195.242 239.019 195.242C238.777 195.242 238.572 195.158 238.404 194.99C238.237 194.811 238.153 194.591 238.153 194.329C238.153 194.066 238.237 193.851 238.404 193.683C238.572 193.515 238.777 193.431 239.019 193.431ZM249.442 186.771V194.25C249.442 195.047 249.263 195.745 248.906 196.344C248.56 196.942 248.067 197.399 247.426 197.713C246.786 198.039 246.041 198.202 245.191 198.202C243.963 198.202 242.819 197.813 241.758 197.036L242.404 195.966C242.813 196.302 243.238 196.548 243.679 196.706C244.12 196.874 244.603 196.958 245.128 196.958C245.988 196.958 246.676 196.716 247.19 196.234C247.704 195.751 247.962 195.105 247.962 194.297V193.132C247.668 193.636 247.269 194.029 246.765 194.313C246.261 194.586 245.684 194.722 245.033 194.722C244.288 194.722 243.627 194.554 243.049 194.218C242.483 193.872 242.042 193.394 241.727 192.786C241.412 192.177 241.255 191.479 241.255 190.692C241.255 189.915 241.412 189.227 241.727 188.629C242.042 188.031 242.483 187.564 243.049 187.228C243.627 186.892 244.288 186.724 245.033 186.724C245.694 186.724 246.272 186.861 246.765 187.134C247.269 187.406 247.668 187.795 247.962 188.299V186.771H249.442ZM245.317 193.541C245.831 193.541 246.287 193.421 246.686 193.179C247.085 192.938 247.395 192.607 247.615 192.187C247.846 191.757 247.962 191.274 247.962 190.739C247.962 190.193 247.846 189.71 247.615 189.29C247.395 188.86 247.085 188.524 246.686 188.283C246.287 188.041 245.831 187.921 245.317 187.921C244.802 187.921 244.34 188.041 243.931 188.283C243.532 188.524 243.217 188.86 242.986 189.29C242.756 189.71 242.64 190.193 242.64 190.739C242.651 191.558 242.903 192.229 243.396 192.754C243.889 193.279 244.529 193.541 245.317 193.541ZM255.451 186.724C256.742 186.724 257.718 187.107 258.379 187.873C259.041 188.629 259.371 189.684 259.371 191.038C259.371 191.248 259.366 191.405 259.355 191.51H252.774C252.89 192.256 253.2 192.849 253.703 193.289C254.218 193.73 254.847 193.951 255.593 193.951C256.086 193.951 256.543 193.861 256.962 193.683C257.393 193.505 257.765 193.253 258.08 192.927L258.883 193.762C258.474 194.203 257.98 194.544 257.403 194.785C256.826 195.027 256.186 195.147 255.482 195.147C254.664 195.147 253.934 194.974 253.294 194.628C252.664 194.271 252.171 193.772 251.814 193.132C251.468 192.492 251.295 191.762 251.295 190.944C251.295 190.125 251.468 189.401 251.814 188.771C252.171 188.131 252.664 187.632 253.294 187.275C253.924 186.908 254.643 186.724 255.451 186.724ZM258.049 190.377C258.007 189.621 257.755 189.028 257.293 188.598C256.831 188.157 256.222 187.936 255.467 187.936C254.732 187.936 254.118 188.157 253.625 188.598C253.142 189.039 252.853 189.632 252.759 190.377H258.049ZM265.84 194.549C265.2 194.958 264.549 195.163 263.888 195.163C263.227 195.163 262.691 194.969 262.282 194.58C261.873 194.182 261.668 193.583 261.668 192.786V188.173H260.487V187.055H261.668V184.819H263.148V187.055H265.699V188.173H263.148V192.518C263.148 192.98 263.232 193.31 263.4 193.51C263.568 193.709 263.82 193.809 264.156 193.809C264.555 193.809 264.985 193.678 265.447 193.415L265.84 194.549ZM267.768 184.079H274.948L274.932 185.449H269.28V189.07H274.365V190.44H269.28V195.1H267.768V184.079ZM283.943 186.771V195.1H282.463V193.337C281.917 194.523 280.889 195.126 279.377 195.147C278.412 195.147 277.656 194.864 277.11 194.297C276.564 193.72 276.291 192.927 276.291 191.92V186.771H277.771V191.526C277.771 192.229 277.96 192.78 278.338 193.179C278.727 193.568 279.257 193.762 279.928 193.762C280.705 193.751 281.319 193.478 281.77 192.943C282.232 192.397 282.463 191.705 282.463 190.865V186.771H283.943ZM286.878 183.418H288.342V195.1H286.878V183.418ZM291.367 183.418H292.832V195.1H291.367V183.418ZM304.217 184.079L300.092 191.321V195.1H298.581V191.384L294.393 184.079H295.936L299.336 189.7L302.674 184.079H304.217ZM308.233 186.724C309.524 186.724 310.5 187.107 311.162 187.873C311.823 188.629 312.154 189.684 312.154 191.038C312.154 191.248 312.148 191.405 312.138 191.51H305.557C305.672 192.256 305.982 192.849 306.486 193.289C307 193.73 307.63 193.951 308.375 193.951C308.868 193.951 309.325 193.861 309.745 193.683C310.175 193.505 310.548 193.253 310.863 192.927L311.666 193.762C311.256 194.203 310.763 194.544 310.186 194.785C309.608 195.027 308.968 195.147 308.265 195.147C307.446 195.147 306.717 194.974 306.076 194.628C305.447 194.271 304.953 193.772 304.596 193.132C304.25 192.492 304.077 191.762 304.077 190.944C304.077 190.125 304.25 189.401 304.596 188.771C304.953 188.131 305.447 187.632 306.076 187.275C306.706 186.908 307.425 186.724 308.233 186.724ZM310.831 190.377C310.789 189.621 310.537 189.028 310.075 188.598C309.614 188.157 309.005 187.936 308.249 187.936C307.514 187.936 306.9 188.157 306.407 188.598C305.924 189.039 305.636 189.632 305.541 190.377H310.831ZM319.237 195.1V193.935C318.617 194.754 317.647 195.163 316.324 195.163C315.747 195.163 315.238 195.053 314.797 194.832C314.367 194.612 314.031 194.308 313.789 193.919C313.558 193.531 313.443 193.095 313.443 192.612C313.443 191.867 313.716 191.279 314.262 190.849C314.818 190.408 315.589 190.183 316.576 190.172H319.221V189.779C319.221 189.191 319.037 188.739 318.67 188.425C318.313 188.099 317.788 187.936 317.095 187.936C316.256 187.936 315.4 188.236 314.529 188.834L313.915 187.826C314.513 187.438 315.064 187.16 315.568 186.992C316.083 186.813 316.691 186.724 317.395 186.724C318.434 186.724 319.237 186.981 319.803 187.496C320.37 187.999 320.659 188.708 320.669 189.621L320.685 195.1H319.237ZM316.623 193.951C317.305 193.951 317.883 193.788 318.355 193.463C318.838 193.127 319.126 192.686 319.221 192.14V191.306H316.781C316.119 191.306 315.626 191.405 315.301 191.605C314.986 191.804 314.828 192.119 314.828 192.549C314.828 192.98 314.991 193.321 315.316 193.573C315.642 193.825 316.077 193.951 316.623 193.951ZM324.764 188.566C325.037 187.968 325.425 187.517 325.929 187.212C326.433 186.897 327.031 186.735 327.724 186.724V188.141C326.873 188.11 326.186 188.33 325.661 188.802C325.136 189.275 324.837 189.91 324.764 190.707V195.1H323.299V186.771H324.764V188.566ZM332.334 183.418C331.746 184.321 331.29 185.36 330.964 186.535C330.649 187.711 330.492 188.944 330.492 190.235C330.492 191.526 330.649 192.759 330.964 193.935C331.29 195.11 331.746 196.15 332.334 197.052H330.98C330.371 196.16 329.904 195.131 329.579 193.966C329.253 192.791 329.091 191.547 329.091 190.235C329.091 188.923 329.253 187.685 329.579 186.519C329.904 185.344 330.371 184.31 330.98 183.418H332.334ZM334.345 183.418C334.953 184.31 335.42 185.344 335.746 186.519C336.071 187.685 336.234 188.923 336.234 190.235C336.234 191.547 336.071 192.791 335.746 193.966C335.42 195.131 334.953 196.16 334.345 197.052H332.991C333.578 196.15 334.03 195.11 334.345 193.935C334.67 192.759 334.833 191.526 334.833 190.235C334.833 188.944 334.67 187.711 334.345 186.535C334.03 185.36 333.578 184.321 332.991 183.418H334.345ZM342.554 189.794H346.317V190.849H342.554V189.794ZM360.013 193.73V195.1H352.047V193.935L356.313 189.511C356.775 189.049 357.142 188.592 357.415 188.141C357.688 187.679 357.825 187.28 357.825 186.945C357.825 186.451 357.63 186.063 357.242 185.78C356.864 185.496 356.339 185.354 355.668 185.354C355.153 185.354 354.618 185.475 354.062 185.717C353.505 185.947 353.002 186.273 352.55 186.693L351.905 185.543C352.503 185.061 353.138 184.688 353.81 184.426C354.492 184.153 355.174 184.016 355.857 184.016C356.927 184.016 357.783 184.263 358.423 184.756C359.074 185.249 359.399 185.911 359.399 186.74C359.399 187.716 358.717 188.913 357.352 190.33L354.03 193.73H360.013ZM366.25 184.016C367.73 184.016 368.868 184.499 369.666 185.465C370.464 186.42 370.863 187.795 370.863 189.59C370.863 191.384 370.464 192.765 369.666 193.73C368.868 194.696 367.73 195.179 366.25 195.179C364.759 195.179 363.615 194.696 362.817 193.73C362.03 192.765 361.637 191.384 361.637 189.59C361.637 187.795 362.03 186.42 362.817 185.465C363.615 184.499 364.759 184.016 366.25 184.016ZM366.25 185.213C364.213 185.213 363.195 186.672 363.195 189.59C363.195 191.038 363.452 192.13 363.967 192.864C364.481 193.599 365.242 193.966 366.25 193.966C367.257 193.966 368.018 193.599 368.532 192.864C369.047 192.13 369.304 191.038 369.304 189.59C369.304 186.672 368.286 185.213 366.25 185.213ZM377.443 184.016C378.923 184.016 380.061 184.499 380.859 185.465C381.657 186.42 382.056 187.795 382.056 189.59C382.056 191.384 381.657 192.765 380.859 193.73C380.061 194.696 378.923 195.179 377.443 195.179C375.952 195.179 374.808 194.696 374.01 193.73C373.223 192.765 372.83 191.384 372.83 189.59C372.83 187.795 373.223 186.42 374.01 185.465C374.808 184.499 375.952 184.016 377.443 184.016ZM377.443 185.213C375.406 185.213 374.388 186.672 374.388 189.59C374.388 191.038 374.645 192.13 375.16 192.864C375.674 193.599 376.435 193.966 377.443 193.966C378.45 193.966 379.211 193.599 379.725 192.864C380.24 192.13 380.497 191.038 380.497 189.59C380.497 186.672 379.479 185.213 377.443 185.213ZM383.031 184.079H387.045V195.1H385.534V185.449H383.031V184.079ZM390.385 188.755C390.627 188.755 390.826 188.839 390.984 189.007C391.152 189.175 391.236 189.39 391.236 189.653C391.236 189.915 391.152 190.135 390.984 190.314C390.826 190.482 390.627 190.566 390.385 190.566C390.144 190.566 389.939 190.482 389.771 190.314C389.603 190.135 389.519 189.915 389.519 189.653C389.519 189.39 389.603 189.175 389.771 189.007C389.939 188.839 390.144 188.755 390.385 188.755ZM390.385 193.478C390.616 193.478 390.81 193.557 390.968 193.715C391.136 193.872 391.22 194.082 391.22 194.344C391.22 194.46 391.194 194.58 391.141 194.706C391.099 194.832 391.052 194.953 390.999 195.068L390.149 196.863H389.346L389.976 195.084C389.829 195.011 389.719 194.911 389.645 194.785C389.572 194.649 389.535 194.502 389.535 194.344C389.535 194.092 389.614 193.888 389.771 193.73C389.939 193.562 390.144 193.478 390.385 193.478Z" fill="#F9826C"/>
<path d="M43.2341 219.808C42.8877 219.588 42.4889 219.42 42.0376 219.305C41.5967 219.179 41.1612 219.116 40.7308 219.116C39.6707 219.116 38.8573 219.483 38.2905 220.218C37.7237 220.953 37.4403 221.96 37.4403 223.241C37.4403 223.44 37.4456 223.592 37.4561 223.697C37.729 223.099 38.1383 222.642 38.6841 222.328C39.2299 222.013 39.8859 221.855 40.6521 221.855C41.7542 221.855 42.6201 222.17 43.2499 222.8C43.8901 223.43 44.2102 224.28 44.2102 225.35C44.2102 226.096 44.0528 226.746 43.7379 227.303C43.423 227.848 42.977 228.274 42.3997 228.578C41.8224 228.872 41.1507 229.019 40.3844 229.019C39.4713 229.019 38.6788 228.809 38.0071 228.389C37.3459 227.969 36.8368 227.36 36.4799 226.563C36.1336 225.754 35.9604 224.789 35.9604 223.666C35.9604 222.501 36.1493 221.483 36.5272 220.611C36.9155 219.73 37.4561 219.053 38.1488 218.58C38.852 218.098 39.676 217.856 40.6206 217.856C41.1454 217.856 41.6964 217.93 42.2737 218.077C42.8615 218.224 43.3811 218.418 43.8324 218.659L43.2341 219.808ZM40.3844 223.067C39.8492 223.067 39.3821 223.178 38.9832 223.398C38.5844 223.608 38.2748 223.891 38.0543 224.248C37.8444 224.605 37.7447 224.994 37.7552 225.413C37.7447 225.781 37.8339 226.138 38.0228 226.484C38.2118 226.83 38.4952 227.119 38.873 227.35C39.2614 227.581 39.7337 227.696 40.29 227.696C41.0457 227.696 41.6492 227.486 42.1005 227.066C42.5624 226.647 42.7933 226.069 42.7933 225.335C42.7933 224.642 42.5729 224.091 42.132 223.682C41.7017 223.272 41.1192 223.067 40.3844 223.067ZM74.2818 223.477V224.689H73.8252C73.5838 224.689 73.4054 224.763 73.2899 224.91C73.1744 225.046 73.1167 225.277 73.1167 225.602V229.003C73.1167 229.696 72.933 230.189 72.5657 230.483C72.2088 230.777 71.6105 230.924 70.7709 230.924H70.2198V229.727C70.7761 229.727 71.1697 229.638 71.4006 229.46C71.642 229.281 71.7627 228.987 71.7627 228.578V225.697C71.7627 225.424 71.7942 225.209 71.8572 225.051C71.9202 224.894 72.0041 224.768 72.1091 224.673C72.2246 224.579 72.3977 224.458 72.6287 224.311C72.7651 224.238 72.8858 224.159 72.9908 224.075L72.6287 223.839C72.3033 223.65 72.0776 223.472 71.9517 223.304C71.8257 223.136 71.7627 222.863 71.7627 222.485V219.588C71.7627 219.179 71.642 218.885 71.4006 218.706C71.1697 218.528 70.7761 218.439 70.2198 218.439V217.242H70.7709C71.6105 217.242 72.2088 217.394 72.5657 217.699C72.933 217.993 73.1167 218.481 73.1167 219.163V222.564C73.1167 222.889 73.1744 223.125 73.2899 223.272C73.4054 223.409 73.5838 223.477 73.8252 223.477H74.2818Z" fill="#F9826C"/>
<path d="M35.2204 251.759H43.4703V252.94L38.6684 262.78H37.0625L41.7699 253.129H36.5901L36.5744 254.719H35.2204V251.759ZM56.7081 257.317V258.529H56.2516C56.0102 258.529 55.8317 258.603 55.7163 258.75C55.6008 258.886 55.5431 259.117 55.5431 259.442V262.843C55.5431 263.536 55.3594 264.029 54.9921 264.323C54.6352 264.617 54.0369 264.764 53.1972 264.764H52.6462V263.567C53.2025 263.567 53.5961 263.478 53.827 263.3C54.0684 263.121 54.1891 262.827 54.1891 262.418V259.537C54.1891 259.264 54.2206 259.049 54.2836 258.891C54.3465 258.734 54.4305 258.608 54.5355 258.513C54.6509 258.419 54.8241 258.298 55.055 258.151C55.1915 258.078 55.3122 257.999 55.4171 257.915L55.055 257.679C54.7297 257.49 54.504 257.312 54.378 257.144C54.2521 256.976 54.1891 256.703 54.1891 256.325V253.428C54.1891 253.019 54.0684 252.725 53.827 252.546C53.5961 252.368 53.2025 252.279 52.6462 252.279V251.082H53.1972C54.0369 251.082 54.6352 251.234 54.9921 251.539C55.3594 251.833 55.5431 252.321 55.5431 253.003V256.404C55.5431 256.729 55.6008 256.965 55.7163 257.112C55.8317 257.249 56.0102 257.317 56.2516 257.317H56.7081Z" fill="#F9826C"/>
</g>
<defs>
<filter id="filter0_d_5_255" x="-10" y="-5" width="455.95" height="332.62" filterUnits="userSpaceOnUse" color-interpolation-filters="sRGB">
<feFlood flood-opacity="0" result="BackgroundImageFix"/>
<feColorMatrix in="SourceAlpha" type="matrix" values="0 0 0 0 0 0 0 0 0 0 0 0 0 0 0 0 0 0 127 0" result="hardAlpha"/>
<feOffset dy="5"/>
<feGaussianBlur stdDeviation="5"/>
<feComposite in2="hardAlpha" operator="out"/>
<feColorMatrix type="matrix" values="0 0 0 0 0 0 0 0 0 0 0 0 0 0 0 0 0 0 0.05 0"/>
<feBlend mode="normal" in2="BackgroundImageFix" result="effect1_dropShadow_5_255"/>
<feBlend mode="normal" in="SourceGraphic" in2="effect1_dropShadow_5_255" result="shape"/>
</filter>
</defs>
</svg>
