<svg width="88" height="798" viewBox="0 0 88 798" fill="none" xmlns="http://www.w3.org/2000/svg">
<path fill-rule="evenodd" clip-rule="evenodd" d="M43.9999 44C43.9999 37.9249 48.9248 33 54.9999 33C61.0751 33 65.9999 37.9249 65.9999 44C65.9999 50.0751 61.0751 55 54.9999 55C48.9248 55 43.9999 50.0751 43.9999 44Z" fill="#1ABCFE"/>
<path fill-rule="evenodd" clip-rule="evenodd" d="M21.9999 66C21.9999 59.9249 26.9248 55 32.9999 55H43.9999V66C43.9999 72.0751 39.0751 77 32.9999 77C26.9248 77 21.9999 72.0751 21.9999 66Z" fill="#0ACF83"/>
<path fill-rule="evenodd" clip-rule="evenodd" d="M43.9999 11V33H54.9999C61.0751 33 65.9999 28.0751 65.9999 22C65.9999 15.9249 61.0751 11 54.9999 11H43.9999Z" fill="#FF7262"/>
<path fill-rule="evenodd" clip-rule="evenodd" d="M21.9999 22C21.9999 28.0751 26.9248 33 32.9999 33H43.9999V11H32.9999C26.9248 11 21.9999 15.9249 21.9999 22Z" fill="#F24E1E"/>
<path fill-rule="evenodd" clip-rule="evenodd" d="M21.9999 44C21.9999 50.0751 26.9248 55 32.9999 55H43.9999V33H32.9999C26.9248 33 21.9999 37.9249 21.9999 44Z" fill="#A259FF"/>
<path d="M66.4122 148.103C37.3071 130.99 0.323843 151.891 0.00204736 185.636C-0.312186 218.587 34.5597 239.87 63.5993 225.367L31.8931 178.719L31.8931 207.593C31.8931 210.792 25.7711 210.792 25.7711 207.593V168.885C25.7711 166.345 30.4886 166.137 31.8254 168.344L67.9644 222.88C95.1122 205.394 94.7455 164.763 66.4122 148.103ZM62.3292 202.749L56.1878 193.368V167.688C56.1878 165.294 62.3292 165.294 62.3292 167.688V202.749Z" fill="black"/>
<path d="M66.4122 148.103C37.3071 130.99 0.323843 151.891 0.00204736 185.636C-0.312186 218.587 34.5597 239.87 63.5993 225.367L31.8931 178.719L31.8931 207.593C31.8931 210.792 25.7711 210.792 25.7711 207.593V168.885C25.7711 166.345 30.4886 166.137 31.8254 168.344L67.9644 222.88C95.1122 205.394 94.7455 164.763 66.4122 148.103ZM62.3292 202.749L56.1878 193.368V167.688C56.1878 165.294 62.3292 165.294 62.3292 167.688V202.749Z" fill="white"/>
<path d="M51.3669 327.934C51.3669 323.989 48.0688 320.791 43.9999 320.791C39.9315 320.791 36.633 323.989 36.633 327.934C36.633 331.879 39.9315 335.077 43.9999 335.077C48.0688 335.077 51.3669 331.879 51.3669 327.934Z" fill="#53C1DE"/>
<path fill-rule="evenodd" clip-rule="evenodd" d="M67.9259 314.673C69.4818 308.543 71.4373 297.177 64.5435 293.323C57.6821 289.486 48.7531 296.838 44.0383 301.251C39.3371 296.882 30.1574 289.562 23.2694 293.427C16.4106 297.277 18.5257 308.455 20.1159 314.623C13.7178 316.385 2.74994 320.18 2.74994 327.934C2.74994 335.665 13.7064 339.794 20.0666 341.554C18.4705 347.757 16.4613 358.775 23.3289 362.616C30.2424 366.481 39.3938 359.335 44.1522 354.874C48.8973 359.313 57.7406 366.506 64.6034 362.654C71.488 358.79 69.6948 347.576 68.1045 341.372C74.2699 339.608 85.2499 335.569 85.2499 327.934C85.2499 320.255 74.2233 316.429 67.9259 314.673ZM67.1446 338.084C66.1004 334.879 64.691 331.471 62.9669 327.951C64.6125 324.513 65.9671 321.149 66.9821 317.965C71.5986 319.263 81.7258 322.229 81.7258 327.934C81.7258 333.692 72.0077 336.686 67.1446 338.084ZM62.8373 359.697C57.7171 362.57 50.1108 355.692 46.6065 352.422C48.9312 349.957 51.2544 347.091 53.5218 343.909C57.5103 343.566 61.2783 343.004 64.6954 342.239C65.8147 346.627 67.9805 356.81 62.8373 359.697ZM25.0899 359.655C19.9689 356.793 22.3095 346.96 23.4837 342.392C26.8629 343.116 30.6035 343.638 34.6015 343.952C36.8838 347.066 39.2743 349.929 41.6833 352.436C38.7069 355.227 30.2349 362.532 25.0899 359.655ZM6.27403 327.934C6.27403 322.153 16.3406 319.209 21.0623 317.915C22.0948 321.17 23.4491 324.575 25.0833 328.017C23.4279 331.511 22.0543 334.969 21.0123 338.263C16.5101 337.013 6.27403 333.718 6.27403 327.934ZM25.0351 296.385C30.1771 293.499 38.1554 300.527 41.5686 303.69C39.172 306.186 36.8035 309.027 34.5409 312.123C30.6608 312.471 26.9465 313.032 23.5319 313.782C22.2509 308.807 19.8987 299.267 25.0351 296.385ZM56.0429 315.837C58.6754 316.159 61.1972 316.587 63.5654 317.112C62.8545 319.321 61.9684 321.631 60.9249 324C59.412 321.216 57.7881 318.489 56.0429 315.837ZM44.0394 306.132C45.6649 307.84 47.2929 309.746 48.8943 311.815C45.6459 311.666 42.392 311.665 39.1435 311.813C40.7464 309.763 42.3883 307.859 44.0394 306.132ZM27.1053 323.997C26.079 321.637 25.2009 319.317 24.4838 317.076C26.8377 316.565 29.3479 316.147 31.9632 315.831C30.2131 318.477 28.592 321.203 27.1053 323.997ZM32.0384 340.281C29.3365 339.988 26.7884 339.592 24.4352 339.096C25.1636 336.815 26.0611 334.445 27.1093 332.034C28.6165 334.857 30.2623 337.609 32.0384 340.281ZM44.1369 349.977C42.4664 348.229 40.8004 346.296 39.1731 344.217C42.4402 344.341 45.7136 344.342 48.9801 344.2C47.3736 346.317 45.7514 348.253 44.1369 349.977ZM60.9584 331.911C62.0611 334.348 62.9907 336.706 63.7289 338.948C61.3367 339.477 58.7542 339.903 56.033 340.22C57.7913 337.517 59.4408 334.747 60.9584 331.911ZM51.5549 340.634C46.5578 340.98 41.5292 340.976 36.5304 340.662C33.6899 336.639 31.1614 332.408 28.9787 328.016C31.1507 323.633 33.6609 319.41 36.4881 315.393C41.4907 315.027 46.524 315.026 51.5264 315.396C54.3291 319.412 56.8356 323.624 59.058 327.967C56.8619 332.348 54.3386 336.579 51.5549 340.634ZM62.7833 296.283C67.9266 299.159 65.6372 309.375 64.5136 313.817C61.091 313.051 57.3741 312.481 53.4827 312.127C51.2157 308.998 48.8669 306.152 46.509 303.689C49.9661 300.457 57.6897 293.435 62.7833 296.283Z" fill="#53C1DE"/>
<rect x="5.49994" y="431.5" width="77" height="77" fill="#FFCA28"/>
<path d="M52.2499 495.541L57.9192 491.79C58.3634 493.186 61.1769 496.501 64.7307 496.501C68.2846 496.501 69.9346 494.56 69.9346 493.273C69.9346 489.766 66.3057 488.53 64.5627 487.936C64.2786 487.839 64.0446 487.759 63.8846 487.69C63.8025 487.654 63.6784 487.606 63.5191 487.546C61.5806 486.805 54.4288 484.073 54.4288 476.152C54.4288 467.428 62.848 466.425 64.7519 466.425C65.9974 466.425 71.9865 466.578 74.9692 472.183L69.4692 476.021C68.2634 473.579 66.26 472.772 65.0269 472.772C61.9807 472.772 61.3461 475.005 61.3461 476.021C61.3461 478.874 64.6556 480.152 67.4501 481.232C68.1812 481.514 68.8771 481.783 69.4692 482.063C72.5153 483.502 76.9999 485.858 76.9999 493.273C76.9999 496.987 73.8847 503 66.0422 503C55.5076 503 52.7153 496.675 52.2499 495.541Z" fill="#3E3E3E"/>
<path d="M24.7499 496.286L30.6588 492.537C31.1218 493.932 32.9209 496.504 35.5314 496.504C38.1419 496.504 39.478 493.823 39.478 492.537V467.25H46.745V492.537C46.8626 496.024 44.9282 503 36.3913 503C28.5422 503 25.2791 498.335 24.7499 496.286Z" fill="#3E3E3E"/>
<path d="M16.4999 645L10.9999 576.25H76.9999L71.4999 645L43.9999 653.25L16.4999 645Z" fill="#1172B8"/>
<path d="M71.4999 581.75H43.9999V649.125L65.9999 642.25L71.4999 581.75Z" fill="#33AADD"/>
<path d="M53.6249 616.125H26.1249L24.7499 606.5L46.7499 599.625H24.7499L23.3749 591.375H65.9999L64.6249 601L46.7499 607.875H63.2499L60.4999 634L43.9999 639.5L27.4999 634L26.1249 620.25H34.3749L35.7499 627.125L43.9999 629.875L52.2499 627.125L53.6249 616.125Z" fill="white"/>
<path d="M16.4999 787L10.9999 718.25H76.9999L71.4999 787L43.9999 795.25L16.4999 787Z" fill="#E44D26"/>
<path d="M71.4999 723.75H43.9999V791.125L65.9999 784.25L71.4999 723.75Z" fill="#F16529"/>
<path d="M26.1249 758.125L23.3749 732H65.9999L64.6249 740.25H31.6249L32.9999 749.875H63.2499L60.4999 776L43.9999 781.5L27.4999 776L26.1249 762.25H34.3749L35.7499 769.125L43.9999 771.875L52.2499 769.125L53.6249 758.125H26.1249Z" fill="white"/>
</svg>
